<?xml version="1.0" encoding="UTF-8"?>
<svg id="Layer_1" data-name="Layer 1" xmlns="http://www.w3.org/2000/svg" viewBox="0 0 245.45 400.93">
  <defs>
    <style>
      .cls-1 {
        fill: #f9f9e4;
      }

      .cls-1, .cls-2, .cls-3, .cls-4, .cls-5, .cls-6 {
        stroke: #33411d;
        stroke-miterlimit: 10;
      }

      .cls-1, .cls-3, .cls-4, .cls-5 {
        stroke-width: 3px;
      }

      .cls-2 {
        fill: #b69672;
      }

      .cls-2, .cls-6 {
        stroke-width: 5px;
      }

      .cls-3 {
        fill: #fad0db;
      }

      .cls-4, .cls-6 {
        fill: none;
      }

      .cls-5 {
        fill: #33411d;
      }
    </style>
  </defs>
  <path class="cls-2" d="M213.03,313.49c2.5-7.08,4.52-14.49,5.99-22.16,1.73.06,3.44-.08,5.12-.45,18.49-4.04,22.07-32.04,13.92-63.87-7.87-30.71-31-63.67-49.03-61.54-4.09-5.92-1.06-1.55-5.93-6.48,16.25-13.39,26.27-31.71,26.27-51.92,0-11.18-3.07-21.78-8.57-31.29,16.29-4.9,28.07-19.03,28.07-35.71,0-20.74-18.21-37.56-40.67-37.56s-38.81,15.16-40.52,34.45c-9.57-2.71-19.85-4.18-30.57-4.18-8.23,0-16.21.87-23.81,2.5C90.76,16.79,73.68,2.5,52.98,2.5,30.51,2.5,12.31,19.32,12.31,40.06c0,14.68,9.12,27.38,22.41,33.56-6.3,10.05-9.86,21.42-9.86,33.45,0,20.21,10.02,38.53,26.27,51.92-4.62,4.68-3.26,2.4-7.18,7.98-15.69,3.97-29.31,32.29-36.03,58.48-7.51,29.32-8.85,55.3,6.68,62.53,1.9,11.17,4.94,21.81,8.96,31.72-11.13,8.07-18.29,20.59-18.29,34.67,0,24.33,21.36,44.06,47.71,44.06,13.01,0,24.8-4.81,33.4-12.61,9.72,3.72,20.04,5.72,30.73,5.72,14.35,0,28.02-3.61,40.48-10.12,8.73,10.35,22.34,17.01,37.65,17.01,26.35,0,47.71-19.73,47.71-44.06,0-18.53-12.39-34.37-29.92-40.88Z"/>
  <path class="cls-3" d="M158.81,39.07S168.89-.24,203.52,17.88c32.87,17.19,1.02,42.41-6.98,46.11,0,0-9.17-17.52-37.73-24.91Z"/>
  <path class="cls-3" d="M82.22,37.71S70.85,1.81,38.79,18.49c0,0-35.77,19.88,3.62,45.31,0,0,16.03-21.64,39.8-26.09Z"/>
  <ellipse class="cls-1" cx="76.29" cy="93.58" rx="15.95" ry="14.01"/>
  <ellipse class="cls-1" cx="148.77" cy="93.58" rx="15.9" ry="13.97"/>
  <path class="cls-3" d="M98.06,115.36s13.24-6.37,26.74,0c0,0-4.39,5.56-7.38,5.56-3.84,0-.43,8.15-3.06,8.19-7.89.14-5.09-6.37-7.64-8.04,0,0-5.09,1.67-8.66-5.72Z"/>
  <path class="cls-4" d="M84.11,140.76c4.23,12.5,19.22,8.74,19.22,8.74,10.54-2.69,7.93-21.33,9.15-20.39,0,0-1.44,17.67,12.22,20.56s17.98-9.95,17.98-9.95"/>
  <ellipse class="cls-5" cx="79.22" cy="95.24" rx="8.37" ry="7.68"/>
  <ellipse class="cls-5" cx="146.36" cy="95.92" rx="8.29" ry="7.61"/>
  <ellipse class="cls-3" cx="119.66" cy="256.37" rx="62.13" ry="67.13"/>
  <ellipse class="cls-3" cx="49.85" cy="366.18" rx="28.89" ry="21.79"/>
  <ellipse class="cls-3" cx="195.75" cy="366.18" rx="28.89" ry="21.79"/>
  <ellipse class="cls-3" cx="41.12" cy="328.01" rx="6.09" ry="8.77" transform="translate(-99.6 28.88) rotate(-18.05)"/>
  <ellipse class="cls-3" cx="62.21" cy="328.01" rx="8.77" ry="6.09" transform="translate(-268.93 285.54) rotate(-71.95)"/>
  <ellipse class="cls-3" cx="78.97" cy="336.56" rx="8.77" ry="6.09" transform="translate(-233.15 187.92) rotate(-51.33)"/>
  <ellipse class="cls-3" cx="25.38" cy="336.56" rx="6.09" ry="8.77" transform="translate(-204.73 89.64) rotate(-38.67)"/>
  <ellipse class="cls-3" cx="164.15" cy="338.79" rx="6.09" ry="8.77" transform="translate(-175.7 176.84) rotate(-38.67)"/>
  <ellipse class="cls-3" cx="221.39" cy="336.84" rx="8.77" ry="6.09" transform="translate(-179.93 299.23) rotate(-51.33)"/>
  <ellipse class="cls-3" cx="203.33" cy="328.3" rx="8.77" ry="6.09" transform="translate(-171.81 419.91) rotate(-71.95)"/>
  <ellipse class="cls-3" cx="181.79" cy="330.96" rx="6.09" ry="8.77" transform="translate(-93.59 72.61) rotate(-18.05)"/>
  <path class="cls-6" d="M14.6,287.39c-1.51,1.76,31.34,15.31,35.25-34.36"/>
  <path class="cls-6" d="M219.96,291.04c.65-1.99,4.54-14.44,1.43-19.42"/>
  <path class="cls-6" d="M190.98,250.6c2.87,22.41,10.78,32.15,17.59,36.54,6.03,3.88,11.21,3.59,11.29,4.17,0,0,.03-.09.09-.27"/>
  <path class="cls-6" d="M8.62,283.4s2.23-9.72,4.46-11.76"/>
  <path class="cls-6" d="M20.96,290s-1.26-11.37,0-15.39"/>
  <path class="cls-6" d="M32.2,288.65s.61-8.92-1.58-14.04"/>
  <path class="cls-6" d="M233.54,285.21s.61-8.92-1.58-14.04"/>
  <path class="cls-6" d="M208.87,270.96s-5.13,10.3-2.65,14.47"/>
</svg>