<?xml version="1.0" encoding="UTF-8"?>
<svg xmlns="http://www.w3.org/2000/svg" viewBox="0 0 233.92 401.79">
  <defs>
    <style>
      .cls-1 {
        fill: #dcf0ee;
      }

      .cls-2 {
        fill: #33411d;
        stroke-width: 2px;
      }

      .cls-2, .cls-3, .cls-4 {
        stroke: #33411d;
        stroke-miterlimit: 10;
      }

      .cls-5 {
        fill: #facfdb;
      }

      .cls-6 {
        fill: #b7c999;
      }

      .cls-3 {
        stroke-width: 3px;
      }

      .cls-3, .cls-4 {
        fill: none;
      }

      .cls-7 {
        fill: #f9f9e3;
      }

      .cls-4 {
        stroke-width: 5px;
      }
    </style>
  </defs>
  <g id="Layer_3" data-name="Layer 3">
    <path class="cls-5" d="M144.49,57.29c13.18-36.92,11.6-51.66-28.1-54.66s-16.61,48.67-16.61,48.67c0,0,14.03-2.45,22.72-1.54,14.74,1.54,21.98,7.53,21.98,7.53Z"/>
    <path class="cls-5" d="M96.74,55.71c-11.63-37.44-20.66-44.84-54.2-23.41-33.54,21.43,15.94,48.89,15.94,48.89,0,0,9.75-10.38,17.24-14.88,12.72-7.62,21.02-10.61,21.02-10.61Z"/>
    <path class="cls-5" d="M179.06,90.39c34.8-18.05,44.41-25.18,17.4-54.42-27.01-29.24-49.23,21.25-49.23,21.25,0,0,11.94,7.76,17.68,14.35,9.74,11.17,14.15,18.82,14.15,18.82Z"/>
    <path class="cls-5" d="M181.28,133.43c38.79,5.68,52.93,1.23,48.09-38.28-4.84-39.51-50.98-6.74-50.98-6.74,0,0,5.16,13.27,5.97,21.98,1.38,14.76-3.07,23.03-3.07,23.03Z"/>
    <path class="cls-5" d="M117.35,188.08c3.83,39.01,11.54,51.67,48.73,37.46,37.18-14.21-5.74-51.11-5.74-51.11,0,0-11.64,8.2-19.89,11.09-13.99,4.89-23.1,2.56-23.1,2.56Z"/>
    <path class="cls-5" d="M115.6,186.34c-3.83,39.01-11.54,51.67-48.73,37.46-37.18-14.21,5.74-51.11,5.74-51.11,0,0,11.64,8.2,19.89,11.09,13.99,4.89,23.1,2.56,23.1,2.56Z"/>
    <path class="cls-5" d="M58.68,80.85C23.89,63.88,5.06,63.72,2.65,105.08c-2.01,34.56,45.93,21.58,45.93,21.58,0,0-1.06-14.77.66-23.7,2.91-15.15,9.44-22.12,9.44-22.12Z"/>
    <path class="cls-5" d="M49.84,133.15c-37.72,8.68-52.46,20.4-28.32,54.08,20.17,28.14,50.38-15.71,50.38-15.71,0,0-10.05-8.29-14.33-16.31-7.27-13.61-7.73-22.06-7.73-22.06Z"/>
    <path class="cls-5" d="M160.67,173.36c22.43,31.54,37.46,38.7,59.37,3.53,18.3-29.39-33.76-40.57-33.76-40.57,0,0-3.82,12.45-9.6,19.47-9.8,11.91-16.01,17.56-16.01,17.56Z"/>
    <circle class="cls-1" cx="116.55" cy="120.01" r="68.71"/>
    <path class="cls-7" d="M165.28,133.32s10.32-13.04-4.76-18.81c-15.08-5.77-20.1,11.47-17.93,14.05,2.17,2.58,5.16,7.91,7.06,7.76s10.05-4.09,15.62-3.01Z"/>
    <path class="cls-7" d="M72.1,133.47s-10.32-13.04,4.76-18.81c15.08-5.77,20.1,11.47,17.93,14.05-2.17,2.58-5.16,7.91-7.06,7.76s-10.05-4.09-15.62-3.01Z"/>
    <path class="cls-6" d="M153.92,285.79s9.17-36.28,32.16-38.45,39.26-3.08,42.85-9.55,1.34,22.77,1.34,22.77c0,0-9.48,31.03-27.75,33.03s-35.01,3.44-48.61-7.8Z"/>
    <path class="cls-6" d="M79.81,288.3s-9.17-36.28-32.16-38.45c-22.99-2.18-39.26-3.08-42.85-9.55-3.59-6.47-1.34,22.77-1.34,22.77,0,0,9.48,31.03,27.75,33.03s35.01,3.44,48.61-7.8Z"/>
  </g>
  <g id="Layer_1" data-name="Layer 1">
    <ellipse class="cls-2" cx="117.37" cy="143.14" rx="8.19" ry="7.52"/>
    <g>
      <ellipse class="cls-2" cx="84.92" cy="125.34" rx="5.68" ry="6.19" transform="translate(-49.72 194.58) rotate(-83.1)"/>
      <path class="cls-3" d="M74,115.79s-8.12-3.59-7.72-6.85"/>
      <path class="cls-3" d="M83.24,113.79s-3.97-5.09-2.02-8.77"/>
      <path class="cls-3" d="M89.48,116.06s6.29-1.96,7.26-4.9"/>
      <path class="cls-3" d="M72.52,132.99c1.75-.15,3.61-.13,5.53.11,3.43.42,6.52,1.43,8.98,2.8,4.18-1.48,7.29-4.87,7.81-9.13.76-6.3-4.43-12.11-11.61-12.98-7.17-.87-13.61,3.54-14.37,9.84-.43,3.54,1.02,6.93,3.65,9.37Z"/>
    </g>
    <g>
      <circle class="cls-2" cx="151.6" cy="125.87" r="5.86"/>
      <path class="cls-3" d="M145.47,117.72s-7.51.36-8.22-2.8"/>
      <path class="cls-3" d="M153.92,113.48s-4.01-3.18-4.63-7.92"/>
      <path class="cls-3" d="M163.18,115.38s6.3-3.14,4.65-6.54"/>
      <path class="cls-3" d="M164.84,132.56c-1.75-.14-3.61-.09-5.53.16-3.42.45-6.51,1.5-8.95,2.9-4.19-1.44-7.34-4.79-7.9-9.05-.83-6.29,4.31-12.16,11.47-13.1,7.16-.94,13.64,3.39,14.47,9.68.47,3.54-.95,6.94-3.55,9.4Z"/>
    </g>
    <path class="cls-3" d="M86.87,149.81s11.7,25.4,38.69,15.99"/>
    <path class="cls-3" d="M153.53,96.56s13.23-1.21,19.3,5.87"/>
    <path class="cls-3" d="M83.65,96.09s-13.23-1.21-19.3,5.87"/>
    <path class="cls-4" d="M186.08,120.01c0,37.95-30.76,68.71-68.71,68.71-37.95,0-68.71-30.76-68.71-68.71s30.76-68.71,68.71-68.71,68.71,30.76,68.71,68.71Z"/>
    <path class="cls-4" d="M100.76,51.3S77.68-.38,117.37,2.63s41.27,17.74,28.1,54.66"/>
    <path class="cls-4" d="M178.76,89.26s45.17-34.1,51.16,5.25c5.99,39.35-8.01,44.2-46.95,39.66"/>
    <path class="cls-4" d="M160.37,174.45s42.86,36.96,5.66,51.11c-37.2,14.16-44.9,1.49-48.67-37.53"/>
    <path class="cls-4" d="M70.13,171.22s-27.77,49.32-48.99,15.64C-.08,153.19,10.82,143.14,48.32,131.74"/>
    <path class="cls-4" d="M61.2,81.65s-51.94-22.47-20.67-47.09c31.28-24.62,42.41-14.83,57.66,21.28"/>
    <path class="cls-4" d="M177.75,87.2s53.92-16.18,26.89-43.64c-27.03-27.46-39.29-19.14-59.33,14.4"/>
    <path class="cls-4" d="M163.18,171.42s24.59,50.64,47.37,19.57c22.78-31.07,12.61-41.85-23.69-56.27"/>
    <path class="cls-4" d="M75.42,172.65s-43.71,35.48-8.26,50.59c35.45,15.11,43.62,2.75,49.39-35.89"/>
    <path class="cls-4" d="M57.57,85.81s-42.81-36.56-51.25,1.03c-8.44,37.59,5.19,43.4,44.23,42.08"/>
    <line class="cls-4" x1="116.55" y1="198.63" x2="117.37" y2="401.78"/>
    <g>
      <path class="cls-4" d="M116.96,326.76s3.11-38.66,36.96-40.97c0,0,7.8-38.66,39-39.24s38.33-10.96,38.33-10.96c0,0,6.04,67.6-52.49,59.44-6.56-.91-21.83-5.75-24.84-9.23"/>
      <path class="cls-3" d="M153.92,285.79s67.55-23.23,77.45-48"/>
      <path class="cls-3" d="M215.89,285.79c-12.5,5.85-42.36-7.67-42.36-7.67,0,0-2.11-26.04,5.85-28.54"/>
      <path class="cls-3" d="M228.19,264.6c-5.02,12.33-30.65,2.05-30.65,2.05,0,0-.6-17.7,4.59-20.59"/>
    </g>
    <g>
      <path class="cls-4" d="M116.96,328.96s-3.11-38.66-36.96-40.97c0,0-7.8-38.66-39-39.24s-38.33-10.96-38.33-10.96c0,0-6.04,67.6,52.49,59.44,6.56-.91,21.83-5.75,24.84-9.23"/>
      <path class="cls-3" d="M80.01,287.99S12.45,264.77,2.55,239.99"/>
      <path class="cls-3" d="M18.03,287.99c12.5,5.85,42.36-7.67,42.36-7.67,0,0,2.11-26.04-5.85-28.54"/>
      <path class="cls-3" d="M5.73,266.8c5.02,12.33,30.65,2.05,30.65,2.05,0,0,.6-17.7-4.59-20.59"/>
    </g>
  </g>
</svg>