<?xml version="1.0" encoding="UTF-8"?>
<svg xmlns="http://www.w3.org/2000/svg" viewBox="0 0 276.29 277.91">
  <defs>
    <style>
      .cls-1 {
        fill: #dcf0ee;
      }

      .cls-2 {
        fill: #33411d;
        stroke-width: 2px;
      }

      .cls-2, .cls-3, .cls-4 {
        stroke: #33411d;
        stroke-miterlimit: 10;
      }

      .cls-5 {
        fill: #facfdb;
      }

      .cls-3 {
        stroke-width: 3px;
      }

      .cls-3, .cls-4 {
        fill: none;
      }

      .cls-6 {
        fill: #f9f9e3;
      }

      .cls-4 {
        stroke-width: 5px;
      }
    </style>
  </defs>
  <g id="Layer_3" data-name="Layer 3">
    <path class="cls-1" d="M172.18,68.48c15.99-44.87,14.07-62.78-34.09-66.43-48.16-3.65-20.15,59.15-20.15,59.15,0,0,17.02-2.98,27.57-1.87,17.89,1.87,26.68,9.15,26.68,9.15Z"/>
    <path class="cls-1" d="M114.24,66.7c-14.11-45.49-25.07-54.49-65.77-28.45s19.34,59.42,19.34,59.42c0,0,11.83-12.62,20.92-18.08,15.43-9.26,25.5-12.89,25.5-12.89Z"/>
    <path class="cls-1" d="M212.63,104.97c42.23-21.93,51.54-27.56,18.77-63.09-32.77-35.53-59.74,25.82-59.74,25.82,0,0,16.86,8.68,23.83,16.68,11.82,13.58,17.14,20.58,17.14,20.58Z"/>
    <path class="cls-1" d="M217.1,159.74c47.07,6.9,61.62,1.13,55.74-46.89-5.88-48.01-61.87-8.19-61.87-8.19,0,0,6.26,16.13,7.25,26.71,1.68,17.94-1.12,28.36-1.12,28.36Z"/>
    <path class="cls-1" d="M137.22,223.41c4.65,47.41,14.01,62.79,59.13,45.52,45.12-17.27-6.96-62.1-6.96-62.1,0,0-14.13,9.97-24.14,13.47-16.98,5.95-28.03,3.11-28.03,3.11Z"/>
    <path class="cls-1" d="M137.13,223.41c-4.65,47.41-14.01,62.79-59.13,45.52-45.12-17.27,6.96-62.1,6.96-62.1,0,0,14.13,9.97,24.14,13.47,16.98,5.95,28.03,3.11,28.03,3.11Z"/>
    <path class="cls-1" d="M70.56,95.45C28.35,74.82,5.5,74.63,2.57,124.9c-2.44,42,55.73,26.23,55.73,26.23,0,0-1.28-17.94.8-28.8,3.53-18.41,11.46-26.88,11.46-26.88Z"/>
    <path class="cls-1" d="M57.33,158.76c-45.77,10.55-63.66,24.79-34.37,65.72,24.47,34.2,61.14-19.08,61.14-19.08,0,0-12.19-10.07-17.39-19.82-8.82-16.54-9.38-26.81-9.38-26.81Z"/>
    <path class="cls-1" d="M188.08,207.64c27.21,38.33,45.46,47.03,72.04,4.29,22.21-35.71-40.96-49.3-40.96-49.3,0,0-4.64,15.13-11.65,23.66-11.89,14.48-19.43,21.34-19.43,21.34Z"/>
    <ellipse class="cls-5" cx="138.29" cy="142.8" rx="83.38" ry="83.5"/>
    <path class="cls-6" d="M195.26,158.76s12.52-15.84-5.78-22.85c-18.29-7.01-24.39,13.94-21.76,17.08,2.64,3.13,6.26,9.62,8.57,9.43s12.2-4.97,18.96-3.65Z"/>
    <path class="cls-6" d="M84.34,159.15s-12.52-15.84,5.78-22.85c18.29-7.01,24.39,13.94,21.76,17.08-2.64,3.13-6.26,9.62-8.57,9.43s-12.2-4.97-18.96-3.65Z"/>
  </g>
  <g id="Layer_1" data-name="Layer 1">
    <ellipse class="cls-2" cx="137.89" cy="170.34" rx="9.78" ry="8.97"/>
    <g>
      <ellipse class="cls-2" cx="99.16" cy="149.1" rx="6.78" ry="7.39" transform="translate(-60.78 229.62) rotate(-83.1)"/>
      <path class="cls-3" d="M86.13,137.71s-9.69-4.28-9.21-8.18"/>
      <path class="cls-3" d="M97.15,135.32s-4.74-6.07-2.41-10.46"/>
      <path class="cls-3" d="M104.6,138.02s7.51-2.34,8.66-5.84"/>
      <path class="cls-3" d="M84.36,158.23c2.08-.18,4.31-.15,6.6.13,4.09.5,7.79,1.7,10.72,3.35,4.99-1.77,8.7-5.81,9.32-10.9.91-7.52-5.29-14.46-13.85-15.49-8.56-1.04-16.24,4.22-17.15,11.74-.51,4.22,1.22,8.26,4.36,11.18Z"/>
    </g>
    <g>
      <circle class="cls-2" cx="178.74" cy="149.73" r="7"/>
      <path class="cls-3" d="M171.42,140s-8.96.43-9.81-3.34"/>
      <path class="cls-3" d="M181.5,134.94s-4.78-3.79-5.53-9.46"/>
      <path class="cls-3" d="M192.55,137.22s7.52-3.74,5.55-7.8"/>
      <path class="cls-3" d="M194.53,157.72c-2.09-.16-4.31-.11-6.6.19-4.09.54-7.77,1.78-10.69,3.46-5-1.72-8.76-5.72-9.43-10.8-.99-7.51,5.14-14.51,13.69-15.64,8.55-1.13,16.28,4.05,17.27,11.56.56,4.22-1.14,8.28-4.24,11.22Z"/>
    </g>
    <path class="cls-3" d="M101.49,178.31s13.96,30.32,46.18,19.08"/>
    <path class="cls-3" d="M181.03,114.75s15.79-1.45,23.04,7"/>
    <path class="cls-3" d="M97.64,114.19s-15.79-1.45-23.04,7"/>
    <circle class="cls-4" cx="137.89" cy="142.74" r="82"/>
    <path class="cls-4" d="M118.07,60.74S90.52-.93,137.89,2.65s49.26,21.17,33.53,65.23"/>
    <path class="cls-4" d="M211.15,106.04s53.9-40.7,61.05,6.26c7.15,46.96-9.56,52.75-56.03,47.33"/>
    <path class="cls-4" d="M189.2,207.71s51.15,44.1,6.76,61-53.58,1.78-58.09-44.79"/>
    <path class="cls-4" d="M81.51,203.85s-33.14,58.85-58.47,18.67c-25.33-40.19-12.32-52.18,32.44-65.79"/>
    <path class="cls-4" d="M70.85,96.96s-61.99-26.81-24.67-56.2c37.32-29.39,50.61-17.7,68.81,25.39"/>
    <path class="cls-4" d="M209.94,103.58s64.35-19.31,32.09-52.08c-32.26-32.77-46.9-22.84-70.81,17.18"/>
    <path class="cls-4" d="M192.55,204.09s29.35,60.44,56.54,23.35c27.19-37.08,15.05-49.94-28.27-67.15"/>
    <path class="cls-4" d="M87.82,205.56s-52.16,42.34-9.86,60.37,52.06,3.28,58.94-42.83"/>
    <path class="cls-4" d="M66.52,101.92s-51.08-43.64-61.16,1.23c-10.07,44.87,6.2,51.79,52.79,50.22"/>
  </g>
</svg>