<?xml version="1.0" encoding="UTF-8"?>
<svg xmlns="http://www.w3.org/2000/svg" viewBox="0 0 387.62 329.1">
  <defs>
    <style>
      .cls-1 {
        fill: #e27a92;
      }

      .cls-1, .cls-2, .cls-3, .cls-4, .cls-5, .cls-6 {
        stroke: #33411d;
        stroke-miterlimit: 10;
      }

      .cls-1, .cls-3, .cls-6 {
        stroke-width: 5px;
      }

      .cls-2 {
        fill: #f9f9e4;
      }

      .cls-2, .cls-5 {
        stroke-width: 3px;
      }

      .cls-3 {
        fill: #dcf0ee;
      }

      .cls-4 {
        fill: #33411d;
        stroke-width: 2px;
      }

      .cls-5, .cls-6 {
        fill: none;
      }

      .cls-7 {
        fill: #f9f9e3;
      }
    </style>
  </defs>
  <g id="Layer_3" data-name="Layer 3">
    <path class="cls-7" d="M140.15,234.62s-19.91-12.41-2.24-27.11c17.67-14.71,32.39,5.75,30.64,10.18s-3.32,12.89-5.95,13.58-15.44-.7-22.45,3.35Z"/>
    <path class="cls-7" d="M267.55,189.52s7.9-22.09-15.08-22.65c-22.98-.56-21.82,24.61-17.7,27.01s10.61,8.05,13.1,6.95c2.49-1.1,11.67-10.13,19.68-11.31Z"/>
  </g>
  <g id="Layer_1" data-name="Layer 1">
    <rect class="cls-3" x="31.65" y="49.17" width="324.32" height="230.76" transform="translate(-42.6 71.02) rotate(-18.75)"/>
    <path class="cls-2" d="M267.11,189.43c-2.47.65-5.01,1.6-7.52,2.87-4.49,2.26-8.22,5.17-10.91,8.26-6.45.03-12.38-3.07-15.18-8.65-4.15-8.25.1-18.76,9.49-23.48s20.36-1.86,24.51,6.38c2.33,4.63,2.01,9.98-.38,14.62Z"/>
    <polyline class="cls-6" points="3.17 107.41 193.81 164.55 310.28 3.17"/>
    <line class="cls-6" x1="77.34" y1="325.93" x2="124.73" y2="143.84"/>
    <line class="cls-6" x1="384.45" y1="221.69" x2="236.01" y2="106.07"/>
    <ellipse class="cls-4" cx="206.98" cy="226.65" rx="11.91" ry="10.93" transform="translate(-63.01 80.64) rotate(-19.19)"/>
    <ellipse class="cls-4" cx="153.9" cy="217.72" rx="9" ry="8.26" transform="translate(-42.81 37.74) rotate(-12.29)"/>
    <path class="cls-5" d="M134.33,209.83s-12.86-1.05-13.88-5.72"/>
    <path class="cls-5" d="M146.06,202.66s-7.89-5.09-6.97-11.08"/>
    <path class="cls-5" d="M155.72,202.79s7.71-5.7,7.63-10.2"/>
    <path class="cls-2" d="M140.52,234.16c2.33-1.05,4.9-1.9,7.65-2.5,4.91-1.07,9.64-1.16,13.68-.44,5.03-4.03,7.69-10.17,6.36-16.27-1.96-9.02-11.88-14.52-22.15-12.28-10.27,2.24-17,11.36-15.03,20.38,1.1,5.07,4.72,9.02,9.49,11.12Z"/>
    <circle class="cls-4" cx="258.83" cy="183.36" r="8.53"/>
    <circle class="cls-4" cx="159.95" cy="220.85" r="8.53"/>
    <path class="cls-5" d="M233.41,178.3s-10.14,4.08-12.63.09"/>
    <path class="cls-5" d="M242.99,168.44s-7.02-2.45-10.15-8.67"/>
    <path class="cls-5" d="M256.62,166.63s7.16-7.32,3.26-11.2"/>
    <path class="cls-5" d="M168.27,250.4s28.21,29.3,60.79,3.46"/>
    <path class="cls-5" d="M235.72,149.39s17.59-7.99,29.32-1.17"/>
    <path class="cls-5" d="M139.77,182.28s-18.75,4.66-23.71,17.29"/>
    <path class="cls-1" d="M201.59,191.3l-35.49-16.78c-27.02-12.77-10.07-48.62,16.95-35.85,12.08-25.55,47.57-8.78,35.49,16.78l-16.95,35.85Z"/>
  </g>
</svg>