<?xml version="1.0" encoding="UTF-8"?>
<svg xmlns="http://www.w3.org/2000/svg" viewBox="0 0 250.63 393.21">
  <defs>
    <style>
      .cls-1 {
        stroke-linecap: round;
        stroke-width: 12px;
      }

      .cls-1, .cls-2, .cls-3, .cls-4, .cls-5 {
        stroke: #33411d;
        stroke-miterlimit: 10;
      }

      .cls-1, .cls-4, .cls-5 {
        fill: none;
      }

      .cls-2 {
        fill: #fad0db;
      }

      .cls-2, .cls-3 {
        stroke-width: 2px;
      }

      .cls-3, .cls-6 {
        fill: #33411d;
      }

      .cls-7 {
        fill: #b69672;
      }

      .cls-4 {
        stroke-width: 3px;
      }

      .cls-8 {
        fill: #f9f9e3;
      }

      .cls-5 {
        stroke-width: 5px;
      }
    </style>
  </defs>
  <g id="Layer_3" data-name="Layer 3">
    <ellipse class="cls-7" cx="121.74" cy="289.51" rx="103.17" ry="102.28"/>
    <ellipse class="cls-8" cx="77.25" cy="285.23" rx="17.52" ry="15.74"/>
    <ellipse class="cls-8" cx="166.24" cy="284.5" rx="17.52" ry="15.74"/>
    <circle class="cls-7" cx="51.95" cy="191.99" r="39.23"/>
    <circle class="cls-7" cx="191.28" cy="191.99" r="39.23"/>
  </g>
  <g id="Layer_1" data-name="Layer 1">
    <path class="cls-3" d="M165.12,195.03s10.62-34.17,39.2-16.07c28.57,18.1,2.69,36.68-4.63,40,0,0-8.4-13.4-34.57-23.93Z"/>
    <path class="cls-3" d="M81.52,195.29s-6.82-32.99-37.4-17.48c0,0-29.73,22.15,3.62,43.43,0,0,8.06-17.57,33.79-25.96Z"/>
    <ellipse class="cls-4" cx="77.4" cy="284.86" rx="18.65" ry="16.38"/>
    <ellipse class="cls-4" cx="166.38" cy="284.86" rx="18.65" ry="16.38"/>
    <path class="cls-2" d="M102.84,312.61s16.87-8.11,34.07,0c0,0-5.59,7.08-9.41,7.08-4.89,0-.55,10.38-3.89,10.44-10.06.18-6.49-8.11-9.73-10.24,0,0-6.49,2.13-11.03-7.28Z"/>
    <path class="cls-4" d="M85.6,344.98c5.39,15.93,24.49,11.13,24.49,11.13,12.82-2.02,11.65-25.98,11.65-25.98,0,0-1.84,22.52,15.57,26.2,17.24,3.65,22.91-12.68,22.91-12.68"/>
    <ellipse class="cls-3" cx="81.52" cy="278.99" rx="11.45" ry="10.51"/>
    <ellipse class="cls-3" cx="167.69" cy="278.73" rx="11.97" ry="10.99"/>
    <path class="cls-4" d="M144.55,262.12s11.16-14.72,24.13-14.31"/>
    <path class="cls-4" d="M102.84,265.1s-10.34-15.31-23.31-15.6"/>
    <path class="cls-5" d="M230.77,191.89c0-21.46-17.4-38.86-38.86-38.86s-37.91,16.47-38.81,37.13c-9.03-2.61-18.58-4.01-28.45-4.01-12.01,0-23.53,2.08-34.23,5.88,0-.04,0-.09,0-.13,0-21.46-17.4-38.86-38.86-38.86s-38.86,17.4-38.86,38.86c0,17.85,12.05,32.89,28.45,37.44-11.84,16.69-18.8,37.08-18.8,59.1,0,56.49,45.79,102.28,102.28,102.28s102.28-45.79,102.28-102.28c0-22.73-7.42-43.73-19.96-60.71,13.98-5.88,23.8-19.71,23.8-35.83Z"/>
    <path class="cls-1" d="M112.83,19.94s18.67-26.05,35.84-6.93c23.85,26.55-24.71,34.55-25.95,60.64l-.03,6.96"/>
    <path class="cls-6" d="M122.3,108.82c9.65,0,9.67-15,0-15s-9.67,15,0,15h0Z"/>
    <path class="cls-1" d="M6,64.63s-.64-32.05,24.56-27.01c35,6.99.89,42.46,15.52,64.11l4.14,5.59"/>
    <path class="cls-6" d="M62.3,131.64c9.65,0,9.67-15,0-15s-9.67,15,0,15h0Z"/>
    <path class="cls-1" d="M206.25,44.05s26.44-18.12,36.06,5.71c13.36,33.1-35.01,24.05-45.07,48.16l-2.4,6.53"/>
    <path class="cls-6" d="M187.4,131.27c9.65,0,9.67-15,0-15s-9.67,15,0,15h0Z"/>
  </g>
</svg>