<?xml version="1.0" encoding="UTF-8"?>
<svg xmlns="http://www.w3.org/2000/svg" viewBox="0 0 1718.9 708.99">
  <defs>
    <style>
      .cls-1 {
        fill: #f9f9e4;
      }

      .cls-1, .cls-2, .cls-3, .cls-4, .cls-5, .cls-6, .cls-7 {
        stroke: #33411d;
        stroke-miterlimit: 10;
      }

      .cls-1, .cls-4, .cls-5, .cls-6 {
        stroke-width: 3px;
      }

      .cls-8 {
        fill: #dcf0ee;
      }

      .cls-2, .cls-9 {
        fill: #b69672;
      }

      .cls-2, .cls-7 {
        stroke-width: 5px;
      }

      .cls-3 {
        stroke-width: 2px;
      }

      .cls-3, .cls-6 {
        fill: #33411d;
      }

      .cls-10 {
        fill: #facfdb;
      }

      .cls-11 {
        fill: #b7c999;
      }

      .cls-4 {
        fill: #fad0db;
      }

      .cls-5, .cls-7 {
        fill: none;
      }

      .cls-12 {
        fill: #f9f9e3;
      }
    </style>
  </defs>
  <g id="Layer_3" data-name="Layer 3">
    <path class="cls-9" d="M1445.25,513.25s24.66,23.59,58.27,13.77v34.03s47.91-24.2,52.29-41.33l20.43-.12s-14.59,32.27-40.27,46.71-27.09,37.87-27.09,37.87c0,0-8.51,34.44,7.75,99.67h-53.19s27.89-87.2-18.19-190.61Z"/>
    <path class="cls-11" d="M1432.39,497.1s-46.76,20.4-77.46-19.54c0,0-21.48-23.14-.63-55.16,0,0-37.46-37.68,3.51-71.31,0,0,18.33-11.47,34.33-10.53,0,0,8.66-32.62,44.92-36.62s56.85,23.67,56.85,23.67c0,0,18.01-25.61,59-14.82s43.62,47.47,43.12,55.4c0,0,41.43,10.08,46.74,38.13s-4.52,48.51-25.88,56.41c0,0,2,42.25-22.51,50.53,0,0-22.29,18.49-63.93-3.11,0,0-16.39,25.65-56.72,16.69s-41.34-29.73-41.34-29.73Z"/>
    <path class="cls-12" d="M1429.3,436.53s-14.08-17.46,6.5-25.18c20.57-7.73,27.43,15.37,24.47,18.82s-7.05,10.6-9.64,10.39-13.72-5.48-21.32-4.03Z"/>
    <path class="cls-12" d="M1558.49,435.85s14.08-17.46-6.5-25.18c-20.57-7.73-27.43,15.37-24.47,18.82s7.05,10.6,9.64,10.39,13.72-5.48,21.32-4.03Z"/>
    <path class="cls-8" d="M1507.83,140.42s-33.53,14.63-55.54-14.01c0,0-15.4-16.59-.45-39.56,0,0-26.86-27.02,2.51-51.13,0,0,13.14-8.22,24.62-7.55,0,0,6.21-23.39,32.21-26.26,26-2.86,40.77,16.97,40.77,16.97,0,0,12.92-18.36,42.31-10.63,29.39,7.73,31.28,34.04,30.92,39.72,0,0,29.71,7.23,33.51,27.34,3.8,20.11-3.24,34.79-18.56,40.45,0,0,1.43,30.29-16.14,36.23,0,0-15.98,13.26-45.84-2.23,0,0-11.75,18.39-40.67,11.97-28.92-6.43-29.64-21.32-29.64-21.32Z"/>
    <path class="cls-12" d="M1505.1,97.8s-10.09-12.52,4.66-18.06c14.75-5.54,19.67,11.02,17.54,13.5s-5.05,7.6-6.91,7.45-9.84-3.93-15.29-2.89Z"/>
    <path class="cls-12" d="M1597.74,97.31s10.09-12.52-4.66-18.06c-14.75-5.54-19.67,11.02-17.54,13.5s5.05,7.6,6.91,7.45,9.84-3.93,15.29-2.89Z"/>
    <path class="cls-8" d="M190.77,166.55s-40.03,17.46-66.32-16.73c0,0-18.39-19.81-.54-47.23,0,0-32.08-32.26,3-61.05,0,0,15.69-9.82,29.4-9.02,0,0,7.41-27.93,38.46-31.35,31.05-3.42,48.68,20.27,48.68,20.27,0,0,15.42-21.92,50.51-12.69,35.09,9.23,37.35,40.64,36.92,47.43,0,0,35.47,8.63,40.02,32.65,4.54,24.02-3.87,41.53-22.16,48.3,0,0,1.71,36.17-19.27,43.26,0,0-19.08,15.83-54.74-2.66,0,0-14.03,21.96-48.56,14.29-34.53-7.67-35.39-25.46-35.39-25.46Z"/>
    <path class="cls-12" d="M187.51,115.65s-12.05-14.95,5.56-21.56c17.61-6.61,23.49,13.16,20.95,16.11s-6.03,9.07-8.25,8.9-11.75-4.69-18.26-3.45Z"/>
    <path class="cls-12" d="M298.12,115.07s12.05-14.95-5.56-21.56c-17.61-6.61-23.49,13.16-20.95,16.11s6.03,9.07,8.25,8.9,11.75-4.69,18.26-3.45Z"/>
    <path class="cls-10" d="M1177.87,442.2c10.25-28.71,9.02-40.16-21.84-42.5s-12.91,37.84-12.91,37.84c0,0,10.91-1.91,17.67-1.2,11.46,1.2,17.09,5.86,17.09,5.86Z"/>
    <path class="cls-10" d="M1140.74,440.97c-9.04-29.11-16.06-34.86-42.14-18.2s12.39,38.01,12.39,38.01c0,0,7.58-8.07,13.41-11.57,9.89-5.92,16.34-8.25,16.34-8.25Z"/>
    <path class="cls-10" d="M1204.75,467.94c27.06-14.03,34.53-19.57,13.53-42.31s-38.28,16.52-38.28,16.52c0,0,9.28,6.04,13.75,11.16,7.57,8.69,11,14.63,11,14.63Z"/>
    <path class="cls-10" d="M1206.47,501.39c30.16,4.41,41.15.96,37.39-29.76s-39.64-5.24-39.64-5.24c0,0,4.01,10.32,4.64,17.09,1.07,11.48-2.39,17.91-2.39,17.91Z"/>
    <path class="cls-10" d="M1156.77,543.89c2.98,30.33,8.98,40.17,37.88,29.12,28.91-11.05-4.46-39.73-4.46-39.73,0,0-9.05,6.38-15.47,8.62-10.88,3.8-17.96,1.99-17.96,1.99Z"/>
    <path class="cls-10" d="M1155.41,542.53c-2.98,30.33-8.98,40.17-37.88,29.12-28.91-11.05,4.46-39.73,4.46-39.73,0,0,9.05,6.38,15.47,8.62,10.88,3.8,17.96,1.99,17.96,1.99Z"/>
    <path class="cls-10" d="M1111.15,460.51c-27.04-13.19-41.69-13.32-43.56,18.84-1.57,26.87,35.71,16.78,35.71,16.78,0,0-.82-11.48.51-18.43,2.26-11.78,7.34-17.2,7.34-17.2Z"/>
    <path class="cls-10" d="M1104.28,501.17c-29.33,6.75-40.79,15.86-22.02,42.05,15.68,21.88,39.17-12.21,39.17-12.21,0,0-7.81-6.44-11.14-12.68-5.65-10.58-6.01-17.16-6.01-17.16Z"/>
    <path class="cls-10" d="M1190.45,532.44c17.44,24.52,29.13,30.09,46.16,2.75,14.23-22.85-26.25-31.54-26.25-31.54,0,0-2.97,9.68-7.46,15.14-7.62,9.26-12.45,13.65-12.45,13.65Z"/>
    <circle class="cls-8" cx="1156.15" cy="490.96" r="53.42"/>
    <path class="cls-12" d="M1194.04,501.31s8.02-10.14-3.7-14.62c-11.72-4.49-15.63,8.92-13.94,10.93s4.01,6.15,5.49,6.03,7.82-3.18,12.15-2.34Z"/>
    <path class="cls-12" d="M1121.58,501.42s-8.02-10.14,3.7-14.62c11.72-4.49,15.63,8.92,13.94,10.93s-4.01,6.15-5.49,6.03-7.82-3.18-12.15-2.34Z"/>
    <path class="cls-11" d="M1185.2,619.85s7.13-28.2,25.01-29.9,30.53-2.39,33.32-7.42,1.04,17.71,1.04,17.71c0,0-7.37,24.13-21.58,25.68s-27.22,2.67-37.79-6.06Z"/>
    <path class="cls-11" d="M1127.58,621.81s-7.13-28.2-25.01-29.9c-17.88-1.69-30.53-2.39-33.32-7.42-2.79-5.03-1.04,17.71-1.04,17.71,0,0,7.37,24.13,21.58,25.68,14.21,1.55,27.22,2.67,37.79-6.06Z"/>
    <path class="cls-10" d="M235.56,326.2c14.63-40.99,12.87-57.35-31.19-60.68-44.06-3.33-18.44,54.03-18.44,54.03,0,0,15.57-2.72,25.22-1.71,16.37,1.71,24.41,8.36,24.41,8.36Z"/>
    <path class="cls-10" d="M182.55,324.44c-12.91-41.56-22.93-49.78-60.17-25.99-37.24,23.79,17.7,54.28,17.7,54.28,0,0,10.82-11.53,19.14-16.51,14.12-8.46,23.33-11.78,23.33-11.78Z"/>
    <path class="cls-10" d="M273.93,362.95c38.63-20.04,49.3-27.95,19.32-60.41-29.98-32.46-54.65,23.59-54.65,23.59,0,0,13.25,8.62,19.63,15.93,10.81,12.4,15.71,20.89,15.71,20.89Z"/>
    <path class="cls-10" d="M276.4,410.72c43.06,6.3,58.76,1.37,53.38-42.49-5.38-43.86-56.6-7.48-56.6-7.48,0,0,5.73,14.74,6.63,24.4,1.53,16.39-3.41,25.57-3.41,25.57Z"/>
    <path class="cls-10" d="M205.43,471.4c4.25,43.31,12.82,57.36,54.09,41.58,41.28-15.78-6.37-56.73-6.37-56.73,0,0-12.93,9.1-22.08,12.31-15.53,5.43-25.64,2.84-25.64,2.84Z"/>
    <path class="cls-10" d="M203.48,469.46c-4.25,43.31-12.82,57.36-54.09,41.58-41.28-15.78,6.37-56.73,6.37-56.73,0,0,12.93,9.1,22.08,12.31,15.53,5.43,25.64,2.84,25.64,2.84Z"/>
    <path class="cls-10" d="M140.3,352.35c-38.61-18.84-59.52-19.01-62.2,26.91-2.24,38.37,50.98,23.96,50.98,23.96,0,0-1.18-16.39.73-26.31,3.23-16.82,10.48-24.56,10.48-24.56Z"/>
    <path class="cls-10" d="M130.48,410.41c-41.87,9.63-58.24,22.65-31.44,60.03,22.39,31.24,55.93-17.43,55.93-17.43,0,0-11.15-9.2-15.91-18.1-8.07-15.11-8.58-24.49-8.58-24.49Z"/>
    <path class="cls-10" d="M253.52,455.06c24.9,35.02,41.59,42.97,65.91,3.92,20.32-32.62-37.47-45.03-37.47-45.03,0,0-4.24,13.82-10.66,21.62-10.88,13.22-17.78,19.49-17.78,19.49Z"/>
    <circle class="cls-8" cx="204.54" cy="395.82" r="76.28"/>
    <path class="cls-12" d="M258.64,410.6s11.45-14.47-5.28-20.88c-16.74-6.4-22.32,12.74-19.9,15.6,2.41,2.86,5.73,8.79,7.84,8.61s11.16-4.54,17.35-3.34Z"/>
    <path class="cls-12" d="M155.19,410.77s-11.45-14.47,5.28-20.88c16.74-6.4,22.32,12.74,19.9,15.6-2.41,2.86-5.73,8.79-7.84,8.61s-11.16-4.54-17.35-3.34Z"/>
    <path class="cls-11" d="M246.03,579.86s10.18-40.27,35.71-42.69,43.59-3.42,47.57-10.6c3.99-7.18,1.49,25.28,1.49,25.28,0,0-10.52,34.45-30.81,36.66s-38.86,3.82-53.96-8.66Z"/>
    <path class="cls-11" d="M163.75,582.65s-10.18-40.27-35.71-42.69c-25.52-2.42-43.59-3.42-47.57-10.6-3.99-7.18-1.49,25.28-1.49,25.28,0,0,10.52,34.45,30.81,36.66,20.28,2.21,38.86,3.82,53.96-8.66Z"/>
  </g>
  <g id="Layer_1" data-name="Layer 1">
    <path class="cls-2" d="M592.82,642.01c1.86-5.27,3.36-10.78,4.46-16.49,1.28.04,2.56-.06,3.81-.34,13.76-3.01,16.43-23.85,10.36-47.53-5.86-22.86-23.07-47.38-36.49-45.8-3.04-4.41-.79-1.15-4.41-4.82,12.09-9.97,19.55-23.6,19.55-38.64,0-8.32-2.29-16.21-6.37-23.29,12.12-3.65,20.89-14.17,20.89-26.58,0-15.44-13.55-27.95-30.27-27.95-15.87,0-28.88,11.28-30.16,25.64-7.12-2.01-14.78-3.11-22.75-3.11-6.13,0-12.06.65-17.72,1.86-1.9-13.75-14.61-24.39-30.01-24.39-16.72,0-30.27,12.52-30.27,27.95,0,10.92,6.79,20.38,16.68,24.98-4.69,7.48-7.34,15.94-7.34,24.89,0,15.04,7.46,28.67,19.55,38.64-3.44,3.48-2.43,1.78-5.34,5.94-11.68,2.96-21.81,24.03-26.81,43.52-5.59,21.82-6.58,41.16,4.97,46.54,1.41,8.31,3.67,16.23,6.66,23.61-8.28,6-13.61,15.33-13.61,25.8,0,18.11,15.9,32.79,35.51,32.79,9.68,0,18.45-3.58,24.86-9.39,7.23,2.77,14.91,4.26,22.87,4.26,10.68,0,20.86-2.68,30.13-7.53,6.5,7.7,16.63,12.66,28.02,12.66,19.61,0,35.51-14.68,35.51-32.79,0-13.79-9.22-25.58-22.27-30.43Z"/>
    <path class="cls-4" d="M552.47,437.78s7.5-29.26,33.27-15.77c24.46,12.8.76,31.57-5.19,34.32,0,0-6.82-13.04-28.08-18.54Z"/>
    <path class="cls-4" d="M495.47,436.77s-8.46-26.72-32.32-14.31c0,0-26.62,14.8,2.69,33.72,0,0,11.93-16.1,29.62-19.42Z"/>
    <ellipse class="cls-1" cx="491.06" cy="478.35" rx="11.87" ry="10.42"/>
    <ellipse class="cls-1" cx="545" cy="478.35" rx="11.83" ry="10.39"/>
    <path class="cls-4" d="M507.26,494.55s9.85-4.74,19.9,0c0,0-3.27,4.14-5.5,4.14-2.85,0-.32,6.06-2.27,6.1-5.87.11-3.79-4.74-5.69-5.98,0,0-3.79,1.24-6.44-4.25Z"/>
    <path class="cls-5" d="M496.88,513.46c3.15,9.3,14.3,6.5,14.3,6.5,7.85-2,5.9-15.87,6.81-15.17,0,0-1.07,13.15,9.1,15.3,10.07,2.13,13.38-7.4,13.38-7.4"/>
    <ellipse class="cls-6" cx="493.24" cy="479.59" rx="6.23" ry="5.72"/>
    <ellipse class="cls-6" cx="543.21" cy="480.09" rx="6.17" ry="5.66"/>
    <ellipse class="cls-4" cx="523.33" cy="599.5" rx="46.24" ry="49.96"/>
    <ellipse class="cls-4" cx="471.38" cy="681.22" rx="21.5" ry="16.22"/>
    <ellipse class="cls-4" cx="579.96" cy="681.22" rx="21.5" ry="16.22"/>
    <ellipse class="cls-4" cx="464.88" cy="652.82" rx="4.53" ry="6.52" transform="translate(-179.38 176.16) rotate(-18.05)"/>
    <ellipse class="cls-4" cx="480.58" cy="652.82" rx="6.52" ry="4.53" transform="translate(-289.01 907.49) rotate(-71.95)"/>
    <ellipse class="cls-4" cx="493.05" cy="659.18" rx="6.52" ry="4.53" transform="translate(-329.68 632.26) rotate(-51.33)"/>
    <ellipse class="cls-4" cx="453.17" cy="659.18" rx="4.53" ry="6.52" transform="translate(-312.52 427.67) rotate(-38.67)"/>
    <ellipse class="cls-4" cx="556.44" cy="660.84" rx="4.53" ry="6.52" transform="translate(-290.92 492.56) rotate(-38.67)"/>
    <ellipse class="cls-4" cx="599.05" cy="659.39" rx="6.52" ry="4.53" transform="translate(-290.08 715.1) rotate(-51.33)"/>
    <ellipse class="cls-4" cx="585.61" cy="653.03" rx="6.52" ry="4.53" transform="translate(-216.73 1007.49) rotate(-71.95)"/>
    <ellipse class="cls-4" cx="569.57" cy="655.01" rx="4.53" ry="6.52" transform="translate(-174.91 208.7) rotate(-18.05)"/>
    <path class="cls-7" d="M445.15,622.59c-1.12,1.31,23.33,11.39,26.23-25.57"/>
    <path class="cls-7" d="M597.98,625.3c.48-1.48,3.38-10.75,1.07-14.45"/>
    <path class="cls-7" d="M576.42,595.21c2.13,16.68,8.02,23.93,13.09,27.2,4.49,2.89,8.34,2.67,8.4,3.1,0,0,.02-.07.07-.2"/>
    <path class="cls-7" d="M441.79,618.03s1.66-7.24,3.32-8.75"/>
    <path class="cls-7" d="M449.88,624.53s-.94-8.46,0-11.45"/>
    <path class="cls-7" d="M458.24,623.52s.46-6.64-1.17-10.45"/>
    <path class="cls-7" d="M608.09,620.96s.46-6.64-1.17-10.45"/>
    <path class="cls-7" d="M589.73,610.36s-3.82,7.66-1.98,10.77"/>
    <ellipse class="cls-3" cx="1550.16" cy="107.7" rx="8.17" ry="7.5"/>
    <g>
      <ellipse class="cls-3" cx="1517.81" cy="89.96" rx="5.66" ry="6.17" transform="translate(1246.03 1585.94) rotate(-83.1)"/>
      <path class="cls-5" d="M1506.92,80.44s-8.09-3.58-7.7-6.83"/>
      <path class="cls-5" d="M1516.13,78.44s-3.96-5.07-2.02-8.74"/>
      <path class="cls-5" d="M1522.35,80.7s6.27-1.95,7.24-4.88"/>
      <path class="cls-5" d="M1505.44,97.59c1.74-.15,3.6-.13,5.52.1,3.42.41,6.5,1.42,8.96,2.8,4.17-1.48,7.27-4.85,7.78-9.1.76-6.28-4.42-12.08-11.57-12.94-7.15-.87-13.57,3.52-14.33,9.81-.43,3.53,1.02,6.9,3.64,9.34Z"/>
    </g>
    <g>
      <circle class="cls-3" cx="1584.28" cy="90.49" r="5.85"/>
      <path class="cls-5" d="M1578.17,82.36s-7.48.36-8.2-2.79"/>
      <path class="cls-5" d="M1586.59,78.13s-3.99-3.17-4.62-7.9"/>
      <path class="cls-5" d="M1595.82,80.03s6.28-3.13,4.63-6.52"/>
      <path class="cls-5" d="M1597.48,97.15c-1.74-.13-3.6-.09-5.51.16-3.41.45-6.49,1.49-8.93,2.89-4.18-1.43-7.32-4.78-7.88-9.02-.83-6.27,4.29-12.12,11.43-13.06s13.6,3.38,14.43,9.65c.46,3.52-.95,6.91-3.54,9.38Z"/>
    </g>
    <path class="cls-5" d="M1519.75,114.35s11.66,25.33,38.57,15.94"/>
    <path class="cls-5" d="M1586.2,61.26s13.19-1.21,19.24,5.85"/>
    <path class="cls-5" d="M1516.54,60.79s-13.19-1.21-19.24,5.85"/>
    <path class="cls-7" d="M1441.53,53.6c-3.39,12.01.75,24.59,9.79,33.76-2.38,3.11-4.19,6.65-5.3,10.57-5.35,18.95,8.03,39.3,29.87,45.47,11.18,3.15,22.41,1.98,31.42-2.46,5.1,9.69,14.71,17.67,27.02,21.14,16.94,4.78,34-.39,43.29-11.79,3.76,2.42,7.99,4.35,12.6,5.65,21.84,6.16,43.88-4.21,49.22-23.15,1.55-5.51,1.52-11.14.16-16.5,9.27-4.13,16.42-11.6,19.17-21.33,5.35-18.95-8.03-39.3-29.87-45.47-1.42-.4-2.84-.73-4.26-.99,1.52-17.16-11.27-34.18-30.92-39.72-16.36-4.61-32.82.04-42.31,10.63-5.46-7.07-13.55-12.69-23.35-15.45-21.84-6.16-43.88,4.21-49.22,23.15-.15.53-.28,1.05-.4,1.58-17.28-.16-32.59,9.56-36.92,24.93Z"/>
    <ellipse class="cls-3" cx="241.3" cy="127.48" rx="9.75" ry="8.95"/>
    <g>
      <ellipse class="cls-3" cx="202.68" cy="106.29" rx="6.76" ry="7.37" transform="translate(72.8 294.72) rotate(-83.1)"/>
      <path class="cls-5" d="M189.68,94.92s-9.66-4.27-9.19-8.16"/>
      <path class="cls-5" d="M200.68,92.54s-4.73-6.06-2.41-10.44"/>
      <path class="cls-5" d="M208.1,95.24s7.49-2.33,8.64-5.83"/>
      <path class="cls-5" d="M187.92,115.4c2.08-.18,4.3-.15,6.59.12,4.08.49,7.77,1.7,10.69,3.34,4.97-1.76,8.68-5.79,9.29-10.87.91-7.5-5.28-14.42-13.82-15.45-8.54-1.03-16.2,4.21-17.11,11.71-.51,4.21,1.22,8.24,4.35,11.15Z"/>
    </g>
    <g>
      <circle class="cls-3" cx="282.05" cy="106.92" r="6.98"/>
      <path class="cls-5" d="M274.75,97.21s-8.93.43-9.79-3.33"/>
      <path class="cls-5" d="M284.81,92.17s-4.77-3.78-5.51-9.43"/>
      <path class="cls-5" d="M295.83,94.43s7.5-3.73,5.53-7.78"/>
      <path class="cls-5" d="M297.8,114.88c-2.08-.16-4.3-.11-6.58.19-4.08.54-7.75,1.78-10.66,3.45-4.99-1.71-8.74-5.7-9.41-10.77-.99-7.49,5.13-14.47,13.65-15.6s16.24,4.04,17.23,11.53c.55,4.21-1.13,8.26-4.23,11.19Z"/>
    </g>
    <path class="cls-5" d="M205,135.42s13.92,30.24,46.06,19.03"/>
    <path class="cls-5" d="M284.34,72.03s15.75-1.45,22.98,6.99"/>
    <path class="cls-5" d="M201.17,71.47s-15.75-1.45-22.98,6.99"/>
    <path class="cls-7" d="M111.61,62.88c-4.05,14.34.89,29.36,11.69,40.31-2.84,3.71-5.01,7.95-6.32,12.62-6.38,22.63,9.58,46.93,35.66,54.29,13.35,3.76,26.75,2.36,37.52-2.94,6.08,11.57,17.57,21.1,32.26,25.24,20.23,5.71,40.59-.46,51.69-14.07,4.49,2.89,9.54,5.2,15.04,6.75,26.08,7.36,52.39-5.02,58.77-27.65,1.86-6.58,1.82-13.3.2-19.7,11.07-4.93,19.61-13.85,22.89-25.47,6.38-22.63-9.58-46.93-35.66-54.29-1.7-.48-3.39-.87-5.08-1.19,1.81-20.49-13.46-40.81-36.92-47.43-19.53-5.51-39.19.05-50.51,12.69-6.52-8.44-16.18-15.15-27.88-18.45-26.08-7.36-52.39,5.02-58.77,27.65-.18.63-.33,1.26-.48,1.89-20.63-.19-38.91,11.42-44.09,29.77Z"/>
    <ellipse class="cls-3" cx="1492.13" cy="450.77" rx="11.39" ry="10.45"/>
    <g>
      <ellipse class="cls-3" cx="1447.02" cy="426.02" rx="7.9" ry="8.61" transform="translate(850.12 1811.33) rotate(-83.1)"/>
      <path class="cls-5" d="M1431.83,412.75s-11.28-4.99-10.73-9.53"/>
      <path class="cls-5" d="M1444.68,409.96s-5.52-7.07-2.81-12.19"/>
      <path class="cls-5" d="M1453.35,413.12s8.75-2.72,10.09-6.81"/>
      <path class="cls-5" d="M1429.78,436.66c2.43-.21,5.02-.18,7.69.15,4.77.58,9.07,1.98,12.49,3.9,5.81-2.06,10.14-6.77,10.86-12.69,1.06-8.76-6.16-16.84-16.14-18.05-9.97-1.21-18.92,4.91-19.98,13.68-.6,4.92,1.42,9.63,5.08,13.02Z"/>
    </g>
    <g>
      <circle class="cls-3" cx="1539.72" cy="426.76" r="8.15"/>
      <path class="cls-5" d="M1531.2,415.42s-10.44.5-11.43-3.89"/>
      <path class="cls-5" d="M1542.94,409.53s-5.57-4.42-6.44-11.02"/>
      <path class="cls-5" d="M1555.82,412.18s8.76-4.36,6.46-9.09"/>
      <path class="cls-5" d="M1558.12,436.06c-2.43-.19-5.02-.12-7.69.23-4.76.63-9.05,2.08-12.45,4.03-5.83-2-10.21-6.66-10.99-12.58-1.15-8.75,5.99-16.9,15.95-18.22,9.96-1.31,18.97,4.72,20.12,13.46.65,4.92-1.32,9.64-4.94,13.08Z"/>
    </g>
    <path class="cls-5" d="M1449.73,460.04s16.26,35.32,53.79,22.23"/>
    <path class="cls-5" d="M1542.4,384.89s18.4-1.69,26.84,8.16"/>
    <path class="cls-5" d="M1445.25,385.35s-18.4-1.69-26.84,8.16"/>
    <path class="cls-7" d="M1340.65,375.32c-4.73,16.75,1.04,34.29,13.65,47.08-3.32,4.34-5.85,9.28-7.39,14.74-7.45,26.43,11.19,54.81,41.65,63.41,15.59,4.4,31.25,2.76,43.82-3.44,7.11,13.52,20.52,24.64,37.68,29.48,23.62,6.66,47.41-.54,60.38-16.44,5.24,3.37,11.14,6.07,17.57,7.88,30.46,8.59,61.19-5.86,68.65-32.29,2.17-7.68,2.12-15.53.23-23.01,12.93-5.76,22.9-16.17,26.73-29.75,7.45-26.43-11.19-54.81-41.65-63.41-1.98-.56-3.96-1.02-5.94-1.38,2.11-23.93-15.72-47.67-43.12-55.4-22.81-6.43-45.77.06-59,14.82-7.62-9.86-18.9-17.7-32.57-21.55-30.46-8.59-61.19,5.86-68.65,32.29-.21.73-.39,1.47-.56,2.21-24.1-.22-45.45,13.34-51.49,34.77Z"/>
    <path class="cls-7" d="M1445.25,513.25s46.41,98.85,18.19,190.61h53.19s-27.67-109.39,10.24-131.77c41.38-24.42,49.37-52.49,49.37-52.49"/>
    <path class="cls-7" d="M1503.52,527.02v34.03s44.36-20.66,52.29-41.33"/>
    <ellipse class="cls-3" cx="1156.79" cy="508.95" rx="6.37" ry="5.85"/>
    <g>
      <ellipse class="cls-3" cx="1131.56" cy="495.11" rx="4.42" ry="4.81" transform="translate(504.01 1558.94) rotate(-83.1)"/>
      <path class="cls-5" d="M1123.07,487.68s-6.31-2.79-6-5.33"/>
      <path class="cls-5" d="M1130.25,486.13s-3.09-3.96-1.57-6.82"/>
      <path class="cls-5" d="M1135.1,487.89s4.89-1.52,5.64-3.81"/>
      <path class="cls-5" d="M1121.92,501.06c1.36-.12,2.81-.1,4.3.08,2.67.32,5.07,1.11,6.99,2.18,3.25-1.15,5.67-3.79,6.07-7.1.59-4.9-3.45-9.42-9.02-10.09-5.58-.68-10.58,2.75-11.17,7.65-.33,2.75.8,5.38,2.84,7.28Z"/>
    </g>
    <g>
      <circle class="cls-3" cx="1183.4" cy="495.52" r="4.56"/>
      <path class="cls-5" d="M1178.63,489.18s-5.84.28-6.39-2.18"/>
      <path class="cls-5" d="M1185.2,485.88s-3.11-2.47-3.6-6.16"/>
      <path class="cls-5" d="M1192.4,487.36s4.9-2.44,3.61-5.08"/>
      <path class="cls-5" d="M1193.69,500.72c-1.36-.11-2.81-.07-4.3.13-2.66.35-5.06,1.16-6.96,2.25-3.26-1.12-5.71-3.73-6.15-7.03-.64-4.89,3.35-9.45,8.92-10.19s10.61,2.64,11.25,7.53c.36,2.75-.74,5.39-2.76,7.31Z"/>
    </g>
    <path class="cls-5" d="M1133.07,514.13s9.09,19.75,30.08,12.43"/>
    <path class="cls-5" d="M1184.9,472.73s10.29-.94,15.01,4.56"/>
    <path class="cls-5" d="M1130.57,472.36s-10.29-.94-15.01,4.56"/>
    <path class="cls-7" d="M1210.21,490.96c0,29.5-23.92,53.42-53.42,53.42-29.5,0-53.42-23.92-53.42-53.42s23.92-53.42,53.42-53.42,53.42,23.92,53.42,53.42Z"/>
    <path class="cls-7" d="M1143.87,437.54s-17.95-40.18,12.91-37.84,32.09,13.79,21.84,42.5"/>
    <path class="cls-7" d="M1204.51,467.05s35.12-26.52,39.78,4.08c4.66,30.6-6.23,34.37-36.5,30.84"/>
    <path class="cls-7" d="M1190.22,533.29s33.33,28.73,4.4,39.74c-28.92,11.01-34.91,1.16-37.84-29.18"/>
    <path class="cls-7" d="M1120.06,530.78s-21.59,38.34-38.09,12.16c-16.5-26.18-8.03-33.99,21.13-42.86"/>
    <path class="cls-7" d="M1113.11,461.13s-40.39-17.47-16.07-36.61c24.32-19.14,32.97-11.53,44.83,16.54"/>
    <path class="cls-7" d="M1203.73,465.45s41.92-12.58,20.9-33.93c-21.02-21.35-30.55-14.88-46.13,11.19"/>
    <path class="cls-7" d="M1192.4,530.93s19.12,39.37,36.83,15.21c17.71-24.16,9.8-32.54-18.42-43.75"/>
    <path class="cls-7" d="M1124.17,531.89s-33.98,27.59-6.42,39.33c27.56,11.74,33.91,2.14,38.4-27.9"/>
    <path class="cls-7" d="M1110.29,464.37s-33.28-28.43-39.84.8c-6.56,29.23,4.04,33.74,34.39,32.72"/>
    <line class="cls-7" x1="1156.15" y1="552.08" x2="1156.79" y2="710.03"/>
    <g>
      <path class="cls-7" d="M1156.47,651.71s2.42-30.06,28.73-31.85c0,0,6.07-30.06,30.32-30.51,24.26-.45,29.8-8.52,29.8-8.52,0,0,4.7,52.56-40.81,46.21-5.1-.71-16.97-4.47-19.31-7.18"/>
      <path class="cls-5" d="M1185.2,619.85s52.52-18.06,60.22-37.32"/>
      <path class="cls-5" d="M1233.39,619.85c-9.72,4.55-32.94-5.97-32.94-5.97,0,0-1.64-20.25,4.55-22.19"/>
      <path class="cls-5" d="M1242.95,603.38c-3.9,9.59-23.83,1.59-23.83,1.59,0,0-.47-13.76,3.57-16.01"/>
    </g>
    <g>
      <path class="cls-7" d="M1156.47,653.42s-2.42-30.06-28.73-31.85c0,0-6.07-30.06-30.32-30.51-24.26-.45-29.8-8.52-29.8-8.52,0,0-4.7,52.56,40.81,46.21,5.1-.71,16.97-4.47,19.31-7.18"/>
      <path class="cls-5" d="M1127.74,621.56s-52.52-18.06-60.22-37.32"/>
      <path class="cls-5" d="M1079.55,621.56c9.72,4.55,32.94-5.97,32.94-5.97,0,0,1.64-20.25-4.55-22.19"/>
      <path class="cls-5" d="M1069.99,605.09c3.9,9.59,23.83,1.59,23.83,1.59,0,0,.47-13.76-3.57-16.01"/>
    </g>
    <ellipse class="cls-3" cx="205.46" cy="421.51" rx="9.09" ry="8.35"/>
    <g>
      <ellipse class="cls-3" cx="169.43" cy="401.75" rx="6.31" ry="6.87" transform="translate(-249.77 521.65) rotate(-83.1)"/>
      <path class="cls-5" d="M157.31,391.15s-9.01-3.98-8.57-7.61"/>
      <path class="cls-5" d="M167.56,388.92s-4.41-5.65-2.24-9.73"/>
      <path class="cls-5" d="M174.49,391.44s6.98-2.17,8.06-5.44"/>
      <path class="cls-5" d="M155.66,410.24c1.94-.17,4.01-.14,6.14.12,3.81.46,7.24,1.58,9.97,3.11,4.64-1.64,8.1-5.4,8.67-10.14.85-6.99-4.92-13.45-12.89-14.41-7.96-.96-15.11,3.92-15.95,10.92-.48,3.93,1.14,7.69,4.05,10.4Z"/>
    </g>
    <g>
      <circle class="cls-3" cx="243.46" cy="402.33" r="6.51"/>
      <path class="cls-5" d="M236.65,393.28s-8.33.4-9.13-3.11"/>
      <path class="cls-5" d="M246.03,388.58s-4.45-3.53-5.14-8.8"/>
      <path class="cls-5" d="M256.31,390.69s7-3.48,5.16-7.26"/>
      <path class="cls-5" d="M258.15,409.76c-1.94-.15-4.01-.1-6.14.18-3.8.5-7.22,1.66-9.94,3.22-4.66-1.6-8.15-5.32-8.77-10.04-.92-6.99,4.78-13.5,12.73-14.55,7.95-1.05,15.15,3.77,16.07,10.75.52,3.92-1.06,7.7-3.94,10.44Z"/>
    </g>
    <path class="cls-5" d="M171.6,428.91s12.98,28.2,42.95,17.75"/>
    <path class="cls-5" d="M245.59,369.79s14.69-1.35,21.43,6.52"/>
    <path class="cls-5" d="M168.02,369.27s-14.69-1.35-21.43,6.52"/>
    <path class="cls-7" d="M281.73,395.82c0,42.13-34.15,76.28-76.28,76.28-42.13,0-76.28-34.15-76.28-76.28s34.15-76.28,76.28-76.28,76.28,34.15,76.28,76.28Z"/>
    <path class="cls-7" d="M187.02,319.55s-25.63-57.36,18.44-54.03c44.06,3.33,45.82,19.69,31.19,60.68"/>
    <path class="cls-7" d="M273.6,361.69s50.14-37.86,56.79,5.83c6.65,43.69-8.9,49.07-52.12,44.03"/>
    <path class="cls-7" d="M253.19,456.26s47.58,41.03,6.28,56.74c-41.3,15.72-49.85,1.66-54.03-41.66"/>
    <path class="cls-7" d="M153.01,452.68s-30.82,54.75-54.39,17.36c-23.56-37.38-11.46-48.54,30.17-61.19"/>
    <path class="cls-7" d="M143.09,353.24s-57.67-24.94-22.95-52.28c34.72-27.34,47.08-16.47,64.01,23.62"/>
    <path class="cls-7" d="M272.48,359.4s59.86-17.97,29.85-48.45c-30.01-30.48-43.62-21.24-65.86,15.98"/>
    <path class="cls-7" d="M256.31,452.89s27.3,56.22,52.59,21.72c25.29-34.5,14-46.46-26.3-62.46"/>
    <path class="cls-7" d="M158.88,454.26s-48.52,39.39-9.17,56.16c39.35,16.77,48.42,3.05,54.83-39.84"/>
    <path class="cls-7" d="M139.07,357.86s-47.52-40.59-56.89,1.14c-9.37,41.74,5.76,48.18,49.1,46.72"/>
    <line class="cls-7" x1="204.54" y1="483.1" x2="205.46" y2="708.63"/>
    <g>
      <path class="cls-7" d="M205,625.35s3.45-42.92,41.03-45.48c0,0,8.66-42.92,43.3-43.56,34.64-.64,42.55-12.17,42.55-12.17,0,0,6.7,75.04-58.27,65.98-7.28-1.02-24.23-6.38-27.57-10.25"/>
      <path class="cls-5" d="M246.03,579.86s74.99-25.78,85.98-53.29"/>
      <path class="cls-5" d="M314.83,579.86c-13.87,6.49-47.03-8.52-47.03-8.52,0,0-2.35-28.91,6.49-31.68"/>
      <path class="cls-5" d="M328.48,556.34c-5.57,13.69-34.03,2.27-34.03,2.27,0,0-.67-19.65,5.1-22.86"/>
    </g>
    <g>
      <path class="cls-7" d="M205,627.79s-3.45-42.92-41.03-45.48c0,0-8.66-42.92-43.3-43.56-34.64-.64-42.55-12.17-42.55-12.17,0,0-6.7,75.04,58.27,65.98,7.28-1.02,24.23-6.38,27.57-10.25"/>
      <path class="cls-5" d="M163.97,582.31s-74.99-25.78-85.98-53.29"/>
      <path class="cls-5" d="M95.17,582.31c13.87,6.49,47.03-8.52,47.03-8.52,0,0,2.35-28.91-6.49-31.68"/>
      <path class="cls-5" d="M81.52,558.78c5.57,13.69,34.03,2.27,34.03,2.27,0,0,.67-19.65-5.1-22.86"/>
    </g>
  </g>
</svg>