<?xml version="1.0" encoding="UTF-8"?>
<svg xmlns="http://www.w3.org/2000/svg" viewBox="0 0 1718.9 708.99">
  <defs>
    <style>
      .cls-1 {
        fill: #f9f9e4;
      }

      .cls-1, .cls-2, .cls-3, .cls-4, .cls-5, .cls-6, .cls-7, .cls-8 {
        stroke: #33411d;
        stroke-miterlimit: 10;
      }

      .cls-1, .cls-5, .cls-6, .cls-7 {
        stroke-width: 3px;
      }

      .cls-9 {
        fill: #aecec9;
      }

      .cls-2, .cls-4 {
        stroke-width: 2px;
      }

      .cls-2, .cls-6, .cls-8 {
        fill: none;
      }

      .cls-10 {
        fill: #dcf0ee;
      }

      .cls-11 {
        fill: #99ae79;
      }

      .cls-12 {
        fill: #ecebd2;
      }

      .cls-3, .cls-13 {
        fill: #b69672;
      }

      .cls-3, .cls-8 {
        stroke-width: 5px;
      }

      .cls-4, .cls-7 {
        fill: #33411d;
      }

      .cls-14 {
        fill: #facfdb;
      }

      .cls-15 {
        fill: #b7c999;
      }

      .cls-5 {
        fill: #fad0db;
      }

      .cls-16 {
        fill: #f9f9e3;
      }
    </style>
  </defs>
  <g id="Layer_3" data-name="Layer 3">
    <path class="cls-13" d="M1470.19,500.36s26.47,25.32,62.55,14.78v36.53s51.43-25.98,56.13-44.36l21.93-.13s-15.66,34.64-43.23,50.14c-27.57,15.5-29.08,40.65-29.08,40.65,0,0-9.14,36.97,8.32,106.99h-57.09s29.93-93.6-19.53-204.59Z"/>
    <path class="cls-11" d="M1456.39,483.02s-50.19,21.89-83.14-20.97c0,0-23.05-24.84-.68-59.21,0,0-40.21-40.44,3.76-76.54,0,0,19.68-12.31,36.85-11.31,0,0,9.29-35.02,48.21-39.31s61.03,25.41,61.03,25.41c0,0,19.34-27.48,63.33-15.91,43.99,11.57,46.82,50.95,46.28,59.47,0,0,44.47,10.82,50.17,40.93s-4.85,52.07-27.78,60.55c0,0,2.15,45.35-24.16,54.24,0,0-23.92,19.85-68.62-3.34,0,0-17.59,27.53-60.88,17.91-43.29-9.62-44.37-31.92-44.37-31.92Z"/>
    <path class="cls-16" d="M1453.07,418.01s-15.11-18.74,6.97-27.03c22.08-8.29,29.45,16.49,26.26,20.2s-7.56,11.38-10.35,11.15-14.73-5.88-22.89-4.32Z"/>
    <path class="cls-16" d="M1591.74,417.28s15.11-18.74-6.97-27.03c-22.08-8.29-29.45,16.49-26.26,20.2s7.56,11.38,10.35,11.15,14.73-5.88,22.89-4.32Z"/>
    <path class="cls-9" d="M1550.22,142.59s-33.53,14.63-55.54-14.01c0,0-15.4-16.59-.45-39.56,0,0-26.86-27.02,2.51-51.13,0,0,13.14-8.22,24.62-7.55,0,0,6.21-23.39,32.21-26.26,26-2.86,40.77,16.97,40.77,16.97,0,0,12.92-18.36,42.31-10.63,29.39,7.73,31.28,34.04,30.92,39.72,0,0,29.71,7.23,33.51,27.34,3.8,20.11-3.24,34.79-18.56,40.45,0,0,1.43,30.29-16.14,36.23,0,0-15.98,13.26-45.84-2.23,0,0-11.75,18.39-40.67,11.97-28.92-6.43-29.64-21.32-29.64-21.32Z"/>
    <path class="cls-16" d="M1547.49,99.97s-10.09-12.52,4.66-18.06c14.75-5.54,19.67,11.02,17.54,13.5s-5.05,7.6-6.91,7.45-9.84-3.93-15.29-2.89Z"/>
    <path class="cls-16" d="M1640.13,99.48s10.09-12.52-4.66-18.06c-14.75-5.54-19.67,11.02-17.54,13.5s5.05,7.6,6.91,7.45,9.84-3.93,15.29-2.89Z"/>
    <path class="cls-9" d="M145.83,182.78s-40.03,17.46-66.32-16.73c0,0-18.39-19.81-.54-47.23,0,0-32.08-32.26,3-61.05,0,0,15.69-9.82,29.4-9.02,0,0,7.41-27.93,38.46-31.35,31.05-3.42,48.68,20.27,48.68,20.27,0,0,15.42-21.92,50.51-12.69,35.09,9.23,37.35,40.64,36.92,47.43,0,0,35.47,8.63,40.02,32.65,4.54,24.02-3.87,41.53-22.16,48.3,0,0,1.71,36.17-19.27,43.26,0,0-19.08,15.83-54.74-2.66,0,0-14.03,21.96-48.56,14.29-34.53-7.67-35.39-25.46-35.39-25.46Z"/>
    <path class="cls-16" d="M142.56,131.89s-12.05-14.95,5.56-21.56c17.61-6.61,23.49,13.16,20.95,16.11s-6.03,9.07-8.25,8.9-11.75-4.69-18.26-3.45Z"/>
    <path class="cls-16" d="M253.17,131.31s12.05-14.95-5.56-21.56c-17.61-6.61-23.49,13.16-20.95,16.11s6.03,9.07,8.25,8.9,11.75-4.69,18.26-3.45Z"/>
    <path class="cls-9" d="M1219.19,480.54c8.79-24.63,7.74-34.47-18.75-36.47-26.48-2-11.08,32.47-11.08,32.47,0,0,9.36-1.64,15.16-1.03,9.84,1.03,14.67,5.03,14.67,5.03Z"/>
    <path class="cls-9" d="M1187.33,479.48c-7.76-24.98-13.78-29.92-36.16-15.62-22.38,14.3,10.64,32.62,10.64,32.62,0,0,6.5-6.93,11.51-9.92,8.48-5.08,14.02-7.08,14.02-7.08Z"/>
    <path class="cls-9" d="M1242.25,502.63c23.22-12.04,29.63-16.8,11.61-36.31-18.02-19.51-32.85,14.18-32.85,14.18,0,0,7.97,5.18,11.8,9.57,6.5,7.45,9.44,12.55,9.44,12.55Z"/>
    <path class="cls-9" d="M1243.74,531.34c25.88,3.79,35.31.82,32.08-25.54s-34.02-4.49-34.02-4.49c0,0,3.44,8.86,3.98,14.66.92,9.85-2.05,15.37-2.05,15.37Z"/>
    <path class="cls-9" d="M1201.08,567.81c2.55,26.03,7.7,34.47,32.51,24.99,24.81-9.48-3.83-34.1-3.83-34.1,0,0-7.77,5.47-13.27,7.4-9.34,3.26-15.41,1.71-15.41,1.71Z"/>
    <path class="cls-9" d="M1199.91,566.64c-2.55,26.03-7.7,34.47-32.51,24.99-24.81-9.48,3.83-34.1,3.83-34.1,0,0,7.77,5.47,13.27,7.4,9.34,3.26,15.41,1.71,15.41,1.71Z"/>
    <path class="cls-9" d="M1161.94,496.26c-23.21-11.32-35.77-11.43-37.38,16.17-1.34,23.06,30.64,14.4,30.64,14.4,0,0-.71-9.85.44-15.81,1.94-10.11,6.3-14.76,6.3-14.76Z"/>
    <path class="cls-9" d="M1156.04,531.15c-25.16,5.79-35,13.61-18.9,36.08,13.46,18.78,33.62-10.48,33.62-10.48,0,0-6.7-5.53-9.56-10.88-4.85-9.08-5.16-14.72-5.16-14.72Z"/>
    <path class="cls-9" d="M1229.99,557.98c14.96,21.05,24.99,25.82,39.61,2.36,12.21-19.61-22.52-27.07-22.52-27.07,0,0-2.55,8.31-6.4,12.99-6.54,7.95-10.68,11.72-10.68,11.72Z"/>
    <circle class="cls-12" cx="1200.55" cy="522.39" r="45.84"/>
    <path class="cls-16" d="M1233.07,531.27s6.88-8.7-3.18-12.55c-10.06-3.85-13.41,7.66-11.96,9.38,1.45,1.72,3.44,5.28,4.71,5.18s6.71-2.73,10.42-2.01Z"/>
    <path class="cls-16" d="M1170.89,531.37s-6.88-8.7,3.18-12.55c10.06-3.85,13.41,7.66,11.96,9.38-1.45,1.72-3.44,5.28-4.71,5.18s-6.71-2.73-10.42-2.01Z"/>
    <path class="cls-15" d="M1225.48,632.99s6.12-24.2,21.46-25.66c15.34-1.45,26.2-2.05,28.59-6.37,2.4-4.32.9,15.19.9,15.19,0,0-6.33,20.7-18.52,22.03s-23.36,2.29-32.43-5.2Z"/>
    <path class="cls-15" d="M1176.04,634.67s-6.12-24.2-21.46-25.66c-15.34-1.45-26.2-2.05-28.59-6.37-2.4-4.32-.9,15.19-.9,15.19,0,0,6.33,20.7,18.52,22.03,12.19,1.33,23.36,2.29,32.43-5.2Z"/>
    <path class="cls-14" d="M235.56,326.2c14.63-40.99,12.87-57.35-31.19-60.68-44.06-3.33-18.44,54.03-18.44,54.03,0,0,15.57-2.72,25.22-1.71,16.37,1.71,24.41,8.36,24.41,8.36Z"/>
    <path class="cls-14" d="M182.55,324.44c-12.91-41.56-22.93-49.78-60.17-25.99-37.24,23.79,17.7,54.28,17.7,54.28,0,0,10.82-11.53,19.14-16.51,14.12-8.46,23.33-11.78,23.33-11.78Z"/>
    <path class="cls-14" d="M273.93,362.95c38.63-20.04,49.3-27.95,19.32-60.41-29.98-32.46-54.65,23.59-54.65,23.59,0,0,13.25,8.62,19.63,15.93,10.81,12.4,15.71,20.89,15.71,20.89Z"/>
    <path class="cls-14" d="M276.4,410.72c43.06,6.3,58.76,1.37,53.38-42.49-5.38-43.86-56.6-7.48-56.6-7.48,0,0,5.73,14.74,6.63,24.4,1.53,16.39-3.41,25.57-3.41,25.57Z"/>
    <path class="cls-14" d="M205.43,471.4c4.25,43.31,12.82,57.36,54.09,41.58,41.28-15.78-6.37-56.73-6.37-56.73,0,0-12.93,9.1-22.08,12.31-15.53,5.43-25.64,2.84-25.64,2.84Z"/>
    <path class="cls-14" d="M203.48,469.46c-4.25,43.31-12.82,57.36-54.09,41.58-41.28-15.78,6.37-56.73,6.37-56.73,0,0,12.93,9.1,22.08,12.31,15.53,5.43,25.64,2.84,25.64,2.84Z"/>
    <path class="cls-14" d="M140.3,352.35c-38.61-18.84-59.52-19.01-62.2,26.91-2.24,38.37,50.98,23.96,50.98,23.96,0,0-1.18-16.39.73-26.31,3.23-16.82,10.48-24.56,10.48-24.56Z"/>
    <path class="cls-14" d="M130.48,410.41c-41.87,9.63-58.24,22.65-31.44,60.03,22.39,31.24,55.93-17.43,55.93-17.43,0,0-11.15-9.2-15.91-18.1-8.07-15.11-8.58-24.49-8.58-24.49Z"/>
    <path class="cls-14" d="M253.52,455.06c24.9,35.02,41.59,42.97,65.91,3.92,20.32-32.62-37.47-45.03-37.47-45.03,0,0-4.24,13.82-10.66,21.62-10.88,13.22-17.78,19.49-17.78,19.49Z"/>
    <circle class="cls-10" cx="204.54" cy="395.82" r="76.28"/>
    <path class="cls-16" d="M258.64,410.6s11.45-14.47-5.28-20.88c-16.74-6.4-22.32,12.74-19.9,15.6,2.41,2.86,5.73,8.79,7.84,8.61s11.16-4.54,17.35-3.34Z"/>
    <path class="cls-16" d="M155.19,410.77s-11.45-14.47,5.28-20.88c16.74-6.4,22.32,12.74,19.9,15.6-2.41,2.86-5.73,8.79-7.84,8.61s-11.16-4.54-17.35-3.34Z"/>
    <path class="cls-15" d="M246.03,579.86s10.18-40.27,35.71-42.69,43.59-3.42,47.57-10.6c3.99-7.18,1.49,25.28,1.49,25.28,0,0-10.52,34.45-30.81,36.66s-38.86,3.82-53.96-8.66Z"/>
    <path class="cls-15" d="M163.75,582.65s-10.18-40.27-35.71-42.69c-25.52-2.42-43.59-3.42-47.57-10.6-3.99-7.18-1.49,25.28-1.49,25.28,0,0,10.52,34.45,30.81,36.66,20.28,2.21,38.86,3.82,53.96-8.66Z"/>
  </g>
  <g id="Layer_1" data-name="Layer 1">
    <path class="cls-3" d="M566.22,650.97c1.58-4.45,2.84-9.11,3.77-13.94,1.09.04,2.16-.05,3.22-.28,11.63-2.54,13.89-20.16,8.76-40.19-4.95-19.32-19.51-40.06-30.85-38.72-2.57-3.73-.67-.97-3.73-4.08,10.23-8.43,16.53-19.95,16.53-32.67,0-7.03-1.93-13.71-5.39-19.69,10.25-3.08,17.66-11.98,17.66-22.47,0-13.05-11.46-23.63-25.59-23.63-13.42,0-24.42,9.54-25.5,21.68-6.02-1.7-12.49-2.63-19.23-2.63-5.18,0-10.2.55-14.98,1.57-1.6-11.63-12.35-20.62-25.38-20.62-14.13,0-25.59,10.58-25.59,23.63,0,9.23,5.74,17.23,14.1,21.12-3.97,6.33-6.2,13.47-6.2,21.05,0,12.71,6.3,24.24,16.53,32.67-2.91,2.95-2.05,1.51-4.52,5.02-9.87,2.5-18.44,20.31-22.67,36.79-4.73,18.45-5.57,34.79,4.2,39.34,1.19,7.03,3.11,13.72,5.63,19.96-7,5.08-11.5,12.96-11.5,21.81,0,15.31,13.44,27.72,30.02,27.72,8.19,0,15.6-3.03,21.02-7.94,6.12,2.34,12.61,3.6,19.34,3.6,9.03,0,17.63-2.27,25.47-6.37,5.49,6.51,14.06,10.7,23.69,10.7,16.58,0,30.02-12.41,30.02-27.72,0-11.66-7.79-21.63-18.83-25.72Z"/>
    <path class="cls-5" d="M532.11,478.32s6.34-24.73,28.13-13.34c20.68,10.82.64,26.69-4.39,29.01,0,0-5.77-11.02-23.74-15.67Z"/>
    <path class="cls-5" d="M483.92,477.46s-7.15-22.59-27.32-12.09c0,0-22.51,12.51,2.28,28.51,0,0,10.09-13.62,25.04-16.41Z"/>
    <ellipse class="cls-1" cx="480.19" cy="512.62" rx="10.03" ry="8.81"/>
    <ellipse class="cls-1" cx="525.79" cy="512.62" rx="10" ry="8.79"/>
    <path class="cls-5" d="M493.89,526.31s8.33-4.01,16.82,0c0,0-2.76,3.5-4.65,3.5-2.41,0-.27,5.13-1.92,5.16-4.97.09-3.2-4.01-4.81-5.06,0,0-3.2,1.05-5.45-3.6Z"/>
    <path class="cls-6" d="M485.11,542.3c2.66,7.86,12.09,5.5,12.09,5.5,6.63-1.69,4.99-13.42,5.75-12.83,0,0-.91,11.12,7.69,12.94s11.31-6.26,11.31-6.26"/>
    <ellipse class="cls-7" cx="482.04" cy="513.66" rx="5.27" ry="4.83"/>
    <ellipse class="cls-7" cx="524.28" cy="514.08" rx="5.22" ry="4.79"/>
    <ellipse class="cls-5" cx="507.48" cy="615.04" rx="39.09" ry="42.24"/>
    <ellipse class="cls-5" cx="463.55" cy="684.13" rx="18.18" ry="13.71"/>
    <ellipse class="cls-5" cx="555.35" cy="684.13" rx="18.18" ry="13.71"/>
    <ellipse class="cls-5" cx="458.06" cy="660.11" rx="3.83" ry="5.51" transform="translate(-181.98 174.4) rotate(-18.05)"/>
    <ellipse class="cls-5" cx="471.33" cy="660.11" rx="5.51" ry="3.83" transform="translate(-302.33 903.73) rotate(-71.95)"/>
    <ellipse class="cls-5" cx="481.87" cy="665.49" rx="5.51" ry="3.83" transform="translate(-338.81 625.91) rotate(-51.33)"/>
    <ellipse class="cls-5" cx="448.16" cy="665.49" rx="3.83" ry="5.51" transform="translate(-317.56 425.92) rotate(-38.67)"/>
    <ellipse class="cls-5" cx="535.47" cy="666.9" rx="3.83" ry="5.51" transform="translate(-299.3 480.78) rotate(-38.67)"/>
    <ellipse class="cls-5" cx="571.49" cy="665.67" rx="5.51" ry="3.83" transform="translate(-305.32 695.94) rotate(-51.33)"/>
    <ellipse class="cls-5" cx="560.12" cy="660.29" rx="5.51" ry="3.83" transform="translate(-241.22 988.28) rotate(-71.95)"/>
    <ellipse class="cls-5" cx="546.57" cy="661.97" rx="3.83" ry="5.51" transform="translate(-178.2 201.91) rotate(-18.05)"/>
    <path class="cls-8" d="M441.38,634.56c-.95,1.11,19.72,9.63,22.18-21.62"/>
    <path class="cls-8" d="M570.58,636.85c.41-1.25,2.85-9.09.9-12.22"/>
    <path class="cls-8" d="M552.35,611.41c1.8,14.1,6.78,20.23,11.07,22.99,3.79,2.44,7.05,2.26,7.1,2.62,0,0,.02-.06.06-.17"/>
    <path class="cls-8" d="M438.54,630.7s1.4-6.12,2.81-7.4"/>
    <path class="cls-8" d="M445.38,636.2s-.8-7.15,0-9.68"/>
    <path class="cls-8" d="M452.45,635.35s.39-5.62-.99-8.83"/>
    <path class="cls-8" d="M579.13,633.18s.39-5.62-.99-8.83"/>
    <path class="cls-8" d="M563.61,624.22s-3.23,6.48-1.67,9.1"/>
    <ellipse class="cls-4" cx="1592.55" cy="109.87" rx="8.17" ry="7.5"/>
    <g>
      <ellipse class="cls-4" cx="1560.2" cy="92.12" rx="5.66" ry="6.17" transform="translate(1281.17 1629.93) rotate(-83.1)"/>
      <path class="cls-6" d="M1549.31,82.61s-8.09-3.58-7.7-6.83"/>
      <path class="cls-6" d="M1558.52,80.61s-3.96-5.07-2.02-8.74"/>
      <path class="cls-6" d="M1564.74,82.87s6.27-1.95,7.24-4.88"/>
      <path class="cls-6" d="M1547.83,99.75c1.74-.15,3.6-.13,5.52.1,3.42.41,6.5,1.42,8.96,2.8,4.17-1.48,7.27-4.85,7.78-9.1.76-6.28-4.42-12.08-11.57-12.94-7.15-.87-13.57,3.52-14.33,9.81-.43,3.53,1.02,6.9,3.64,9.34Z"/>
    </g>
    <g>
      <circle class="cls-4" cx="1626.67" cy="92.65" r="5.85"/>
      <path class="cls-6" d="M1620.56,84.52s-7.48.36-8.2-2.79"/>
      <path class="cls-6" d="M1628.98,80.3s-3.99-3.17-4.62-7.9"/>
      <path class="cls-6" d="M1638.21,82.2s6.28-3.13,4.63-6.52"/>
      <path class="cls-6" d="M1639.87,99.32c-1.74-.13-3.6-.09-5.51.16-3.41.45-6.49,1.49-8.93,2.89-4.18-1.43-7.32-4.78-7.88-9.02-.83-6.27,4.29-12.12,11.43-13.06s13.6,3.38,14.43,9.65c.46,3.52-.95,6.91-3.54,9.38Z"/>
    </g>
    <path class="cls-6" d="M1562.14,116.52s11.66,25.33,38.57,15.94"/>
    <path class="cls-6" d="M1628.59,63.43s13.19-1.21,19.24,5.85"/>
    <path class="cls-6" d="M1558.93,62.96s-13.19-1.21-19.24,5.85"/>
    <path class="cls-8" d="M1483.92,55.77c-3.39,12.01.75,24.59,9.79,33.76-2.38,3.11-4.19,6.65-5.3,10.57-5.35,18.95,8.03,39.3,29.87,45.47,11.18,3.15,22.41,1.98,31.42-2.46,5.1,9.69,14.71,17.67,27.02,21.14,16.94,4.78,34-.39,43.29-11.79,3.76,2.42,7.99,4.35,12.6,5.65,21.84,6.16,43.88-4.21,49.22-23.15,1.55-5.51,1.52-11.14.16-16.5,9.27-4.13,16.42-11.6,19.17-21.33,5.35-18.95-8.03-39.3-29.87-45.47-1.42-.4-2.84-.73-4.26-.99,1.52-17.16-11.27-34.18-30.92-39.72-16.36-4.61-32.82.04-42.31,10.63-5.46-7.07-13.55-12.69-23.35-15.45-21.84-6.16-43.88,4.21-49.22,23.15-.15.53-.28,1.05-.4,1.58-17.28-.16-32.59,9.56-36.92,24.93Z"/>
    <ellipse class="cls-4" cx="196.36" cy="143.71" rx="9.75" ry="8.95"/>
    <g>
      <ellipse class="cls-4" cx="157.74" cy="122.52" rx="6.76" ry="7.37" transform="translate(17.14 264.39) rotate(-83.1)"/>
      <path class="cls-6" d="M144.73,111.16s-9.66-4.27-9.19-8.16"/>
      <path class="cls-6" d="M155.73,108.78s-4.73-6.06-2.41-10.44"/>
      <path class="cls-6" d="M163.16,111.48s7.49-2.33,8.64-5.83"/>
      <path class="cls-6" d="M142.97,131.63c2.08-.18,4.3-.15,6.59.12,4.08.49,7.77,1.7,10.69,3.34,4.97-1.76,8.68-5.79,9.29-10.87.91-7.5-5.28-14.42-13.82-15.45-8.54-1.03-16.2,4.21-17.11,11.71-.51,4.21,1.22,8.24,4.35,11.15Z"/>
    </g>
    <g>
      <circle class="cls-4" cx="237.11" cy="123.16" r="6.98"/>
      <path class="cls-6" d="M229.81,113.45s-8.93.43-9.79-3.33"/>
      <path class="cls-6" d="M239.86,108.4s-4.77-3.78-5.51-9.43"/>
      <path class="cls-6" d="M250.89,110.67s7.5-3.73,5.53-7.78"/>
      <path class="cls-6" d="M252.86,131.12c-2.08-.16-4.3-.11-6.58.19-4.08.54-7.75,1.78-10.66,3.45-4.99-1.71-8.74-5.7-9.41-10.77-.99-7.49,5.13-14.47,13.65-15.6s16.24,4.04,17.23,11.53c.55,4.21-1.13,8.26-4.23,11.19Z"/>
    </g>
    <path class="cls-6" d="M160.06,151.65s13.92,30.24,46.06,19.03"/>
    <path class="cls-6" d="M239.4,88.26s15.75-1.45,22.98,6.99"/>
    <path class="cls-6" d="M156.22,87.7s-15.75-1.45-22.98,6.99"/>
    <path class="cls-8" d="M66.66,79.11c-4.05,14.34.89,29.36,11.69,40.31-2.84,3.71-5.01,7.95-6.32,12.62-6.38,22.63,9.58,46.93,35.66,54.29,13.35,3.76,26.75,2.36,37.52-2.94,6.08,11.57,17.57,21.1,32.26,25.24,20.23,5.71,40.59-.46,51.69-14.07,4.49,2.89,9.54,5.2,15.04,6.75,26.08,7.36,52.39-5.02,58.77-27.65,1.86-6.58,1.82-13.3.2-19.7,11.07-4.93,19.61-13.85,22.89-25.47,6.38-22.63-9.58-46.93-35.66-54.29-1.7-.48-3.39-.87-5.08-1.19,1.81-20.49-13.46-40.81-36.92-47.43-19.53-5.51-39.19.05-50.51,12.69-6.52-8.44-16.18-15.15-27.88-18.45-26.08-7.36-52.39,5.02-58.77,27.65-.18.63-.33,1.26-.48,1.89-20.63-.19-38.91,11.42-44.09,29.77Z"/>
    <ellipse class="cls-4" cx="1520.52" cy="433.29" rx="12.23" ry="11.22"/>
    <g>
      <ellipse class="cls-4" cx="1472.09" cy="406.73" rx="8.48" ry="9.24" transform="translate(891.34 1819.24) rotate(-83.1)"/>
      <path class="cls-6" d="M1455.79,392.48s-12.11-5.35-11.52-10.23"/>
      <path class="cls-6" d="M1469.58,389.49s-5.93-7.59-3.02-13.08"/>
      <path class="cls-6" d="M1478.89,392.88s9.39-2.92,10.83-7.31"/>
      <path class="cls-6" d="M1453.58,418.15c2.61-.23,5.39-.19,8.26.16,5.12.62,9.74,2.13,13.41,4.18,6.24-2.21,10.88-7.27,11.65-13.62,1.14-9.4-6.62-18.08-17.32-19.37-10.71-1.3-20.31,5.28-21.44,14.68-.64,5.28,1.53,10.33,5.45,13.98Z"/>
    </g>
    <g>
      <circle class="cls-4" cx="1571.6" cy="407.52" r="8.75"/>
      <path class="cls-6" d="M1562.45,395.35s-11.2.53-12.27-4.18"/>
      <path class="cls-6" d="M1575.06,389.02s-5.98-4.74-6.91-11.83"/>
      <path class="cls-6" d="M1588.87,391.87s9.4-4.68,6.93-9.76"/>
      <path class="cls-6" d="M1591.35,417.5c-2.61-.2-5.39-.13-8.26.24-5.11.67-9.71,2.23-13.36,4.32-6.26-2.15-10.96-7.15-11.8-13.5-1.24-9.39,6.43-18.15,17.12-19.55,10.69-1.41,20.36,5.06,21.6,14.45.7,5.28-1.42,10.35-5.3,14.03Z"/>
    </g>
    <path class="cls-6" d="M1475,443.25s17.45,37.91,57.74,23.86"/>
    <path class="cls-6" d="M1574.47,362.58s19.75-1.81,28.81,8.76"/>
    <path class="cls-6" d="M1470.19,363.07s-19.75-1.81-28.81,8.76"/>
    <path class="cls-8" d="M1357.91,352.3c-5.07,17.98,1.12,36.81,14.66,50.53-3.56,4.66-6.28,9.96-7.93,15.82-8,28.37,12.01,58.84,44.71,68.06,16.73,4.72,33.54,2.96,47.04-3.69,7.63,14.51,22.02,26.45,40.44,31.65,25.36,7.15,50.89-.58,64.81-17.65,5.63,3.62,11.96,6.51,18.85,8.46,32.69,9.22,65.68-6.3,73.69-34.66,2.33-8.25,2.28-16.67.25-24.7,13.87-6.18,24.58-17.36,28.69-31.93,8-28.37-12.01-58.84-44.71-68.06-2.13-.6-4.25-1.09-6.37-1.49,2.27-25.68-16.88-51.17-46.28-59.47-24.48-6.91-49.13.06-63.33,15.91-8.18-10.58-20.29-18.99-34.96-23.13-32.69-9.22-65.68,6.3-73.69,34.66-.22.79-.42,1.58-.6,2.37-25.87-.23-48.78,14.32-55.27,37.32Z"/>
    <path class="cls-8" d="M1470.19,500.36s49.82,106.11,19.53,204.59h57.09s-29.7-117.42,11-141.44c44.42-26.21,53-56.34,53-56.34"/>
    <path class="cls-8" d="M1532.74,515.13v36.53s47.61-22.18,56.13-44.36"/>
    <ellipse class="cls-4" cx="1201.1" cy="537.82" rx="5.47" ry="5.02"/>
    <ellipse class="cls-4" cx="1179.45" cy="525.94" rx="3.79" ry="4.13" transform="translate(515.53 1633.61) rotate(-83.1)"/>
    <path class="cls-6" d="M1172.16,519.57s-5.41-2.39-5.15-4.57"/>
    <path class="cls-6" d="M1178.33,518.24s-2.65-3.39-1.35-5.85"/>
    <path class="cls-6" d="M1182.49,519.75s4.2-1.31,4.84-3.27"/>
    <path class="cls-2" d="M1171.18,531.05c1.17-.1,2.41-.09,3.69.07,2.29.28,4.35.95,5.99,1.87,2.79-.99,4.87-3.25,5.21-6.09.51-4.2-2.96-8.08-7.74-8.66-4.79-.58-9.08,2.36-9.59,6.56-.29,2.36.68,4.62,2.44,6.25Z"/>
    <circle class="cls-4" cx="1223.94" cy="526.3" r="3.91"/>
    <path class="cls-6" d="M1219.85,520.86s-5.01.24-5.49-1.87"/>
    <path class="cls-6" d="M1225.48,518.03s-2.67-2.12-3.09-5.29"/>
    <path class="cls-6" d="M1231.66,519.3s4.2-2.09,3.1-4.36"/>
    <path class="cls-2" d="M1232.77,530.76c-1.17-.09-2.41-.06-3.69.11-2.28.3-4.34,1-5.97,1.93-2.8-.96-4.9-3.2-5.27-6.04-.55-4.2,2.87-8.11,7.65-8.74s9.1,2.26,9.66,6.46c.31,2.36-.63,4.63-2.37,6.27Z"/>
    <path class="cls-6" d="M1180.75,542.27s7.8,16.95,25.82,10.67"/>
    <path class="cls-6" d="M1225.22,506.74s8.83-.81,12.88,3.92"/>
    <path class="cls-6" d="M1178.6,506.43s-8.83-.81-12.88,3.92"/>
    <path class="cls-6" d="M1246.94,522.39c0,25.32-20.52,45.84-45.84,45.84-25.32,0-45.84-20.52-45.84-45.84s20.52-45.84,45.84-45.84,45.84,20.52,45.84,45.84Z"/>
    <path class="cls-6" d="M1190.02,476.54s-15.4-34.48,11.08-32.47c26.48,2,27.54,11.84,18.75,36.47"/>
    <path class="cls-6" d="M1242.06,501.87s30.13-22.75,34.13,3.5c4,26.26-5.35,29.49-31.32,26.46"/>
    <path class="cls-6" d="M1229.79,558.71s28.6,24.66,3.78,34.1c-24.82,9.45-29.96,1-32.47-25.04"/>
    <path class="cls-6" d="M1169.58,556.55s-18.52,32.9-32.69,10.44c-14.16-22.47-6.89-29.17,18.13-36.78"/>
    <path class="cls-6" d="M1163.62,496.79s-34.66-14.99-13.79-31.42c20.87-16.43,28.29-9.9,38.47,14.2"/>
    <path class="cls-6" d="M1241.38,500.49s35.97-10.8,17.94-29.12c-18.04-18.32-26.22-12.77-39.58,9.6"/>
    <path class="cls-6" d="M1231.66,556.69s16.41,33.79,31.61,13.06c15.2-20.73,8.41-27.92-15.81-37.54"/>
    <path class="cls-6" d="M1173.11,557.51s-29.16,23.67-5.51,33.75c23.65,10.08,29.1,1.83,32.95-23.94"/>
    <path class="cls-6" d="M1161.2,499.57s-28.56-24.4-34.19.69c-5.63,25.08,3.46,28.95,29.51,28.08"/>
    <line class="cls-6" x1="1200.55" y1="574.84" x2="1201.1" y2="710.38"/>
    <path class="cls-6" d="M1200.83,660.33s2.07-25.8,24.66-27.34c0,0,5.21-25.8,26.02-26.18,20.82-.39,25.57-7.32,25.57-7.32,0,0,4.03,45.1-35.02,39.66-4.38-.61-14.56-3.84-16.57-6.16"/>
    <path class="cls-6" d="M1225.48,632.99s45.07-15.5,51.67-32.03"/>
    <path class="cls-6" d="M1266.83,632.99c-8.34,3.9-28.26-5.12-28.26-5.12,0,0-1.41-17.38,3.9-19.04"/>
    <path class="cls-6" d="M1275.04,618.86c-3.35,8.23-20.45,1.37-20.45,1.37,0,0-.4-11.81,3.06-13.74"/>
    <path class="cls-6" d="M1200.83,661.8s-2.07-25.8-24.66-27.34c0,0-5.21-25.8-26.02-26.18s-25.57-7.32-25.57-7.32c0,0-4.03,45.1,35.02,39.66,4.38-.61,14.56-3.84,16.57-6.16"/>
    <path class="cls-6" d="M1176.17,634.46s-45.07-15.5-51.67-32.03"/>
    <path class="cls-6" d="M1134.82,634.46c8.34,3.9,28.26-5.12,28.26-5.12,0,0,1.41-17.38-3.9-19.04"/>
    <path class="cls-6" d="M1126.62,620.32c3.35,8.23,20.45,1.37,20.45,1.37,0,0,.4-11.81-3.06-13.74"/>
    <ellipse class="cls-4" cx="205.46" cy="421.51" rx="9.09" ry="8.35"/>
    <g>
      <ellipse class="cls-4" cx="169.43" cy="401.75" rx="6.31" ry="6.87" transform="translate(-249.77 521.65) rotate(-83.1)"/>
      <path class="cls-6" d="M157.31,391.15s-9.01-3.98-8.57-7.61"/>
      <path class="cls-6" d="M167.56,388.92s-4.41-5.65-2.24-9.73"/>
      <path class="cls-6" d="M174.49,391.44s6.98-2.17,8.06-5.44"/>
      <path class="cls-6" d="M155.66,410.24c1.94-.17,4.01-.14,6.14.12,3.81.46,7.24,1.58,9.97,3.11,4.64-1.64,8.1-5.4,8.67-10.14.85-6.99-4.92-13.45-12.89-14.41-7.96-.96-15.11,3.92-15.95,10.92-.48,3.93,1.14,7.69,4.05,10.4Z"/>
    </g>
    <g>
      <circle class="cls-4" cx="243.46" cy="402.33" r="6.51"/>
      <path class="cls-6" d="M236.65,393.28s-8.33.4-9.13-3.11"/>
      <path class="cls-6" d="M246.03,388.58s-4.45-3.53-5.14-8.8"/>
      <path class="cls-6" d="M256.31,390.69s7-3.48,5.16-7.26"/>
      <path class="cls-6" d="M258.15,409.76c-1.94-.15-4.01-.1-6.14.18-3.8.5-7.22,1.66-9.94,3.22-4.66-1.6-8.15-5.32-8.77-10.04-.92-6.99,4.78-13.5,12.73-14.55,7.95-1.05,15.15,3.77,16.07,10.75.52,3.92-1.06,7.7-3.94,10.44Z"/>
    </g>
    <path class="cls-6" d="M171.6,428.91s12.98,28.2,42.95,17.75"/>
    <path class="cls-6" d="M245.59,369.79s14.69-1.35,21.43,6.52"/>
    <path class="cls-6" d="M168.02,369.27s-14.69-1.35-21.43,6.52"/>
    <path class="cls-8" d="M281.73,395.82c0,42.13-34.15,76.28-76.28,76.28-42.13,0-76.28-34.15-76.28-76.28s34.15-76.28,76.28-76.28,76.28,34.15,76.28,76.28Z"/>
    <path class="cls-8" d="M187.02,319.55s-25.63-57.36,18.44-54.03c44.06,3.33,45.82,19.69,31.19,60.68"/>
    <path class="cls-8" d="M273.6,361.69s50.14-37.86,56.79,5.83c6.65,43.69-8.9,49.07-52.12,44.03"/>
    <path class="cls-8" d="M253.19,456.26s47.58,41.03,6.28,56.74c-41.3,15.72-49.85,1.66-54.03-41.66"/>
    <path class="cls-8" d="M153.01,452.68s-30.82,54.75-54.39,17.36c-23.56-37.38-11.46-48.54,30.17-61.19"/>
    <path class="cls-8" d="M143.09,353.24s-57.67-24.94-22.95-52.28c34.72-27.34,47.08-16.47,64.01,23.62"/>
    <path class="cls-8" d="M272.48,359.4s59.86-17.97,29.85-48.45c-30.01-30.48-43.62-21.24-65.86,15.98"/>
    <path class="cls-8" d="M256.31,452.89s27.3,56.22,52.59,21.72c25.29-34.5,14-46.46-26.3-62.46"/>
    <path class="cls-8" d="M158.88,454.26s-48.52,39.39-9.17,56.16c39.35,16.77,48.42,3.05,54.83-39.84"/>
    <path class="cls-8" d="M139.07,357.86s-47.52-40.59-56.89,1.14c-9.37,41.74,5.76,48.18,49.1,46.72"/>
    <line class="cls-8" x1="204.54" y1="483.1" x2="205.46" y2="708.63"/>
    <g>
      <path class="cls-8" d="M205,625.35s3.45-42.92,41.03-45.48c0,0,8.66-42.92,43.3-43.56,34.64-.64,42.55-12.17,42.55-12.17,0,0,6.7,75.04-58.27,65.98-7.28-1.02-24.23-6.38-27.57-10.25"/>
      <path class="cls-6" d="M246.03,579.86s74.99-25.78,85.98-53.29"/>
      <path class="cls-6" d="M314.83,579.86c-13.87,6.49-47.03-8.52-47.03-8.52,0,0-2.35-28.91,6.49-31.68"/>
      <path class="cls-6" d="M328.48,556.34c-5.57,13.69-34.03,2.27-34.03,2.27,0,0-.67-19.65,5.1-22.86"/>
    </g>
    <g>
      <path class="cls-8" d="M205,627.79s-3.45-42.92-41.03-45.48c0,0-8.66-42.92-43.3-43.56-34.64-.64-42.55-12.17-42.55-12.17,0,0-6.7,75.04,58.27,65.98,7.28-1.02,24.23-6.38,27.57-10.25"/>
      <path class="cls-6" d="M163.97,582.31s-74.99-25.78-85.98-53.29"/>
      <path class="cls-6" d="M95.17,582.31c13.87,6.49,47.03-8.52,47.03-8.52,0,0,2.35-28.91-6.49-31.68"/>
      <path class="cls-6" d="M81.52,558.78c5.57,13.69,34.03,2.27,34.03,2.27,0,0,.67-19.65-5.1-22.86"/>
    </g>
  </g>
</svg>