<?xml version="1.0" encoding="UTF-8"?>
<svg xmlns="http://www.w3.org/2000/svg" viewBox="0 0 404.66 243.25">
  <defs>
    <style>
      .cls-1 {
        fill: #facfdb;
        stroke: #33411f;
      }

      .cls-1, .cls-2, .cls-3, .cls-4 {
        stroke-miterlimit: 10;
      }

      .cls-1, .cls-3 {
        stroke-width: 3px;
      }

      .cls-2 {
        fill: #33411d;
        stroke-width: 2px;
      }

      .cls-2, .cls-3, .cls-4 {
        stroke: #33411d;
      }

      .cls-5 {
        fill: #b69672;
      }

      .cls-6 {
        fill: #b7c999;
      }

      .cls-3, .cls-4 {
        fill: none;
      }

      .cls-7 {
        fill: #f9f9e3;
      }

      .cls-4 {
        stroke-width: 5px;
      }
    </style>
  </defs>
  <g id="Layer_3" data-name="Layer 3">
    <ellipse class="cls-5" cx="115.32" cy="137.9" rx="103.17" ry="102.28"/>
    <ellipse class="cls-6" cx="300.39" cy="140.33" rx="103.17" ry="102.28"/>
    <ellipse class="cls-7" cx="67.18" cy="134.42" rx="17.52" ry="15.74"/>
    <ellipse class="cls-7" cx="156.16" cy="133.69" rx="17.52" ry="15.74"/>
    <circle class="cls-5" cx="41.73" cy="41.73" r="39.23"/>
    <circle class="cls-5" cx="181.06" cy="41.73" r="39.23"/>
    <path class="cls-7" d="M261.42,148.78s-12.46-15.76,5.75-22.73,24.28,13.87,21.66,16.99-6.24,9.57-8.53,9.38-12.14-4.95-18.87-3.63Z"/>
    <path class="cls-7" d="M364.09,148.02s12.46-15.76-5.75-22.73c-18.21-6.97-24.28,13.87-21.66,16.99s6.24,9.57,8.53,9.38,12.14-4.95,18.87-3.63Z"/>
  </g>
  <g id="Layer_1" data-name="Layer 1">
    <path class="cls-2" d="M154.9,44.5s10.62-34.17,39.2-16.07c28.57,18.1,2.69,36.68-4.63,40,0,0-8.4-13.4-34.57-23.93Z"/>
    <path class="cls-2" d="M71.3,44.76s-6.82-32.99-37.4-17.48c0,0-29.73,22.15,3.62,43.43,0,0,8.06-17.57,33.79-25.96Z"/>
    <circle class="cls-4" cx="299.88" cy="138.47" r="102.28"/>
    <ellipse class="cls-3" cx="67.18" cy="134.33" rx="18.65" ry="16.38"/>
    <ellipse class="cls-3" cx="156.16" cy="134.33" rx="18.65" ry="16.38"/>
    <path class="cls-1" d="M94.49,162.08s16.87-8.11,34.07,0c0,0-5.59,7.08-9.41,7.08-4.89,0-.55,10.38-3.89,10.44-10.06.18-6.49-8.11-9.73-10.24,0,0-6.49,2.13-11.03-7.28Z"/>
    <path class="cls-3" d="M75.38,194.45c5.39,15.93,24.49,11.13,24.49,11.13,14.02-3.38,11.65-25.98,11.65-25.98,0,0-1.84,22.52,15.57,26.2,17.24,3.65,22.91-12.68,22.91-12.68"/>
    <ellipse class="cls-2" cx="73.5" cy="134.26" rx="11.45" ry="10.51"/>
    <ellipse class="cls-2" cx="162.84" cy="134.33" rx="11.97" ry="10.99"/>
    <ellipse class="cls-2" cx="263.51" cy="139.74" rx="5.8" ry="6.32" transform="translate(93.1 384.55) rotate(-83.1)"/>
    <circle class="cls-2" cx="342.43" cy="140.33" r="6.32"/>
    <ellipse class="cls-2" cx="310.28" cy="172.16" rx="7.76" ry="7.12"/>
    <path class="cls-3" d="M263.51,127.77s-9.95-4.4-9.46-8.4"/>
    <path class="cls-3" d="M274.84,125.32s-4.87-6.23-2.48-10.74"/>
    <path class="cls-3" d="M282.48,128.1s7.71-2.4,8.9-6"/>
    <path class="cls-3" d="M339.98,129.48s-9.2.44-10.08-3.43"/>
    <path class="cls-3" d="M350.34,124.28s-4.91-3.9-5.67-9.71"/>
    <path class="cls-3" d="M361.68,126.62s7.72-3.84,5.69-8.01"/>
    <path class="cls-3" d="M261.7,148.85c2.14-.19,4.43-.16,6.78.13,4.2.51,7.99,1.75,11.01,3.44,5.12-1.82,8.94-5.97,9.57-11.19.94-7.72-5.43-14.84-14.22-15.91-8.79-1.06-16.67,4.33-17.61,12.05-.53,4.34,1.26,8.49,4.47,11.48Z"/>
    <path class="cls-3" d="M363.72,147.67c-2.14-.17-4.43-.11-6.78.2-4.2.55-7.98,1.83-10.97,3.55-5.14-1.76-9-5.87-9.69-11.09-1.02-7.71,5.28-14.9,14.06-16.06s16.72,4.16,17.74,11.87c.57,4.33-1.17,8.5-4.35,11.52Z"/>
    <path class="cls-3" d="M258.66,176.93s11.25,37.22,50.23,29.41"/>
    <path class="cls-3" d="M347.03,104.54s18.4-1.69,26.84,8.16"/>
    <path class="cls-3" d="M134.33,111.59s11.16-14.72,24.13-14.31"/>
    <path class="cls-3" d="M272.18,104.54s-18.4-1.69-26.84,8.16"/>
    <path class="cls-3" d="M92.62,114.57s-10.34-15.31-23.31-15.6"/>
    <path class="cls-4" d="M220.55,41.36c0-21.46-17.4-38.86-38.86-38.86s-37.91,16.47-38.81,37.13c-9.03-2.61-18.58-4.01-28.45-4.01-12.01,0-23.53,2.08-34.23,5.88,0-.04,0-.09,0-.13,0-21.46-17.4-38.86-38.86-38.86S2.5,19.9,2.5,41.36c0,17.85,12.05,32.89,28.45,37.44-11.84,16.69-18.8,37.08-18.8,59.1,0,56.49,45.79,102.28,102.28,102.28s102.28-45.79,102.28-102.28c0-22.73-7.42-43.73-19.96-60.71,13.98-5.88,23.8-19.71,23.8-35.83Z"/>
  </g>
</svg>