<?xml version="1.0" encoding="UTF-8"?>
<svg id="Layer_1" data-name="Layer 1" xmlns="http://www.w3.org/2000/svg" viewBox="0 0 363.46 240.39">
  <defs>
    <style>
      .cls-1 {
        fill: #b7c999;
        stroke: #33411d;
        stroke-linejoin: round;
        stroke-width: 9px;
      }

      .cls-2 {
        stroke-width: 3px;
      }

      .cls-2, .cls-3, .cls-4, .cls-5 {
        stroke: #5a6c3a;
        stroke-miterlimit: 10;
      }

      .cls-2, .cls-3, .cls-5 {
        fill: none;
      }

      .cls-3 {
        stroke-width: 4px;
      }

      .cls-6, .cls-4 {
        fill: #5a6c3a;
      }

      .cls-4 {
        stroke-width: 2px;
      }

      .cls-5 {
        stroke-width: 10px;
      }
    </style>
  </defs>
  <polygon class="cls-1" points="358.96 168.97 42.83 235.89 4.5 71.42 320.63 4.5 358.96 168.97"/>
  <path class="cls-6" d="M151.01,91.72s1.27-14.62,14.96-9.92,4.55,14.44,1.79,16.42c0,0-4.78-4.62-16.75-6.51Z"/>
  <path class="cls-6" d="M115.92,99.26s-5.94-12.6-17.34-3.67c0,0-10.42,11.51,5.57,17.06,0,0,1.75-7.75,11.77-13.39Z"/>
  <path class="cls-3" d="M263.62,107.35c5.27,22.61-9.69,45.01-33.42,50.04-23.73,5.02-47.23-9.24-52.5-31.85-5.27-22.61,9.69-45.01,33.42-50.04s47.23,9.24,52.5,31.85Z"/>
  <ellipse class="cls-2" cx="122.54" cy="135.48" rx="8.01" ry="6.73" transform="translate(-19.99 21.21) rotate(-9.15)"/>
  <ellipse class="cls-2" cx="159.92" cy="127.57" rx="8.01" ry="6.73" transform="translate(-18.25 27.06) rotate(-9.15)"/>
  <path class="cls-2" d="M136.6,144.16s6.33-4.75,14.31-3.03c0,0-1.69,3.33-3.29,3.67-2.05.43.74,4.2-.66,4.53-4.21.97-3.48-2.67-5.04-3.23,0,0-2.53,1.43-5.31-1.93Z"/>
  <path class="cls-2" d="M131.6,158.82c3.75,5.9,11.33,2.28,11.33,2.28,5.57-2.6,2.47-11.43,2.47-11.43,0,0,1.33,9.18,8.99,9.1,7.58-.07,8.44-7.11,8.44-7.11"/>
  <ellipse class="cls-4" cx="125.19" cy="134.89" rx="4.92" ry="4.32" transform="translate(-17.63 18.83) rotate(-8.04)"/>
  <ellipse class="cls-4" cx="162.72" cy="126.98" rx="5.14" ry="4.51" transform="translate(-16.16 24) rotate(-8.04)"/>
  <ellipse class="cls-4" cx="205.51" cy="120.19" rx="2.72" ry="2.38" transform="translate(-7.13 13.13) rotate(-3.6)"/>
  <path class="cls-4" d="M241.27,112.52c.51,1.35-.21,2.83-1.62,3.32-1.41.49-2.97-.2-3.49-1.55s.21-2.83,1.62-3.32,2.97.2,3.49,1.55Z"/>
  <ellipse class="cls-4" cx="228.18" cy="129.01" rx="3.33" ry="2.92" transform="translate(-15.8 33.17) rotate(-8.04)"/>
  <path class="cls-2" d="M204.39,115.4s-4.59-.88-4.76-2.52"/>
  <path class="cls-2" d="M208.92,113.41s-2.63-2.06-2.04-4.08"/>
  <path class="cls-2" d="M212.39,113.84s3.01-1.65,3.18-3.19"/>
  <path class="cls-2" d="M236.67,109.28s-3.82.99-4.55-.48"/>
  <path class="cls-2" d="M240.53,106.28s-2.43-1.12-3.29-3.38"/>
  <path class="cls-2" d="M245.52,106.21s2.88-2.22,1.64-3.71"/>
  <path class="cls-2" d="M205.6,124c.88-.27,1.84-.46,2.86-.55,1.81-.17,3.52-.01,4.94.4,1.98-1.18,3.2-3.18,2.98-5.33-.33-3.17-3.67-5.46-7.46-5.1-3.79.36-6.6,3.22-6.27,6.39.18,1.78,1.32,3.29,2.95,4.2Z"/>
  <path class="cls-2" d="M248.34,114.45c-.92.12-1.87.35-2.83.68-1.71.59-3.18,1.44-4.28,2.4-2.32-.25-4.33-1.55-5.1-3.58-1.15-3,.83-6.43,4.41-7.68,3.58-1.24,7.41.18,8.56,3.17.64,1.68.3,3.51-.75,5Z"/>
  <path class="cls-2" d="M206.94,135.51s8.2,13.9,23.84,7.31"/>
  <path class="cls-2" d="M237.31,98.67s7.57-2.31,12.03.88"/>
  <path class="cls-2" d="M148.63,120.41s3.31-6.89,8.8-7.87"/>
  <path class="cls-2" d="M205.86,105.33s-7.88.96-10.51,5.65"/>
  <path class="cls-2" d="M131.39,125.31s-5.77-5.21-11.25-4.17"/>
  <path class="cls-3" d="M178.29,84.63c-2-8.59-10.93-14.01-19.94-12.1s-14.38,9.96-12.84,18.31c-4.04-.24-8.18.05-12.32.92-5.04,1.07-9.69,2.92-13.83,5.4,0-.02,0-.04-.01-.05-2-8.59-10.93-14.01-19.94-12.1s-14.7,10.42-12.69,19.01c1.67,7.15,8.13,12.09,15.44,12.46-3.41,7.73-4.43,16.52-2.38,25.33,5.27,22.61,28.78,36.87,52.5,31.85,23.73-5.02,38.69-27.42,33.42-50.04-2.12-9.1-7.2-16.84-14.05-22.53,5.32-3.6,8.16-10.01,6.65-16.46Z"/>
  <line class="cls-5" x1="34.24" y1="69.36" x2="70.7" y2="225.8"/>
  <line class="cls-5" x1="49.02" y1="66.66" x2="85.37" y2="222.6"/>
  <line class="cls-5" x1="280.59" y1="17.25" x2="317.28" y2="174.66"/>
  <line class="cls-5" x1="295.49" y1="13.55" x2="331.95" y2="169.99"/>
</svg>