<?xml version="1.0" encoding="UTF-8"?>
<svg id="Layer_1" data-name="Layer 1" xmlns="http://www.w3.org/2000/svg" viewBox="0 0 314.54 232.77">
  <defs>
    <style>
      .cls-1 {
        fill: #facfdb;
        stroke: #33411d;
        stroke-linecap: round;
        stroke-linejoin: round;
        stroke-width: 9px;
      }

      .cls-2 {
        fill: #5a6c3a;
        font-family: BricolageGrotesque-ExtraBold, 'Bricolage Grotesque';
        font-size: 86.8px;
        font-weight: 700;
      }
    </style>
  </defs>
  <path class="cls-1" d="M100.47,5.61L18.29,27.73c-9.41,2.53-15.28,11.94-13.45,21.55l12.98,68.39c1.51,7.97,6.85,14.67,14.26,17.89l210.1,91.43c7.89,3.43,17.04-.31,20.3-8.31l46.47-113.99c3.02-7.42-.41-15.91-7.72-19.1L121.8,7.2c-6.73-2.94-14.24-3.5-21.33-1.59ZM27.09,56.47c-1.02-10.35,7.56-18.98,17.87-17.96,7.62.76,13.79,6.95,14.54,14.61,1.02,10.35-7.56,18.98-17.87,17.96-7.62-.76-13.79-6.95-14.54-14.61Z"/>
  <text class="cls-2" transform="translate(67.51 105.58) rotate(21.18) skewX(.21)"><tspan x="0" y="0">$ $ $</tspan></text>
</svg>