<?xml version="1.0" encoding="UTF-8"?>
<svg xmlns="http://www.w3.org/2000/svg" viewBox="0 0 311.26 230.49">
  <defs>
    <style>
      .cls-1 {
        fill: #dcf0ee;
      }

      .cls-2 {
        fill: #33411d;
        stroke-width: 2px;
      }

      .cls-2, .cls-3, .cls-4 {
        stroke: #33411d;
        stroke-miterlimit: 10;
      }

      .cls-3 {
        stroke-width: 3px;
      }

      .cls-3, .cls-4 {
        fill: none;
      }

      .cls-5 {
        fill: #f9f9e3;
      }

      .cls-4 {
        stroke-width: 5px;
      }
    </style>
  </defs>
  <g id="Layer_3" data-name="Layer 3">
    <path class="cls-1" d="M96.6,195.33s-46.76,20.4-77.46-19.54c0,0-21.48-23.14-.63-55.16,0,0-37.46-37.68,3.51-71.31,0,0,18.33-11.47,34.33-10.53,0,0,8.66-32.62,44.92-36.62s56.85,23.67,56.85,23.67c0,0,18.01-25.61,59-14.82s43.62,47.47,43.12,55.4c0,0,41.43,10.08,46.74,38.13s-4.52,48.51-25.88,56.41c0,0,2,42.25-22.51,50.53,0,0-22.29,18.49-63.93-3.11,0,0-16.39,25.65-56.72,16.69s-41.34-29.73-41.34-29.73Z"/>
    <path class="cls-5" d="M92.79,135.89s-14.08-17.46,6.5-25.18c20.57-7.73,27.43,15.37,24.47,18.82s-7.05,10.6-9.64,10.39-13.72-5.48-21.32-4.03Z"/>
    <path class="cls-5" d="M221.99,135.21s14.08-17.46-6.5-25.18c-20.57-7.73-27.43,15.37-24.47,18.82s7.05,10.6,9.64,10.39,13.72-5.48,21.32-4.03Z"/>
  </g>
  <g id="Layer_1" data-name="Layer 1">
    <ellipse class="cls-2" cx="155.63" cy="149.7" rx="11.39" ry="10.45"/>
    <g>
      <ellipse class="cls-2" cx="110.51" cy="124.95" rx="7.9" ry="8.61" transform="translate(-26.81 219.64) rotate(-83.1)"/>
      <path class="cls-3" d="M95.33,111.67s-11.28-4.99-10.73-9.53"/>
      <path class="cls-3" d="M108.17,108.89s-5.52-7.07-2.81-12.19"/>
      <path class="cls-3" d="M116.84,112.04s8.75-2.72,10.09-6.81"/>
      <path class="cls-3" d="M93.27,135.59c2.43-.21,5.02-.18,7.69.15,4.77.58,9.07,1.98,12.49,3.9,5.81-2.06,10.14-6.77,10.86-12.69,1.06-8.76-6.16-16.84-16.14-18.05-9.97-1.21-18.92,4.91-19.98,13.68-.6,4.92,1.42,9.63,5.08,13.02Z"/>
    </g>
    <g>
      <circle class="cls-2" cx="203.22" cy="125.69" r="8.15"/>
      <path class="cls-3" d="M194.69,114.35s-10.44.5-11.43-3.89"/>
      <path class="cls-3" d="M206.44,108.46s-5.57-4.42-6.44-11.02"/>
      <path class="cls-3" d="M219.31,111.1s8.76-4.36,6.46-9.09"/>
      <path class="cls-3" d="M221.62,134.99c-2.43-.19-5.02-.12-7.69.23-4.76.63-9.05,2.08-12.45,4.03-5.83-2-10.21-6.66-10.99-12.58-1.15-8.75,5.99-16.9,15.95-18.22s18.97,4.72,20.12,13.46c.65,4.92-1.32,9.64-4.94,13.08Z"/>
    </g>
    <path class="cls-3" d="M113.22,158.97s16.26,35.32,53.79,22.23"/>
    <path class="cls-3" d="M205.89,84.93s18.4-1.69,26.84,8.16"/>
    <path class="cls-3" d="M108.75,84.28s-18.4-1.69-26.84,8.16"/>
    <path class="cls-4" d="M4.14,74.24c-4.73,16.75,1.04,34.29,13.65,47.08-3.32,4.34-5.85,9.28-7.39,14.74-7.45,26.43,11.19,54.81,41.65,63.41,15.59,4.4,31.25,2.76,43.82-3.44,7.11,13.52,20.52,24.64,37.68,29.48,23.62,6.66,47.41-.54,60.38-16.44,5.24,3.37,11.14,6.07,17.57,7.88,30.46,8.59,61.19-5.86,68.65-32.29,2.17-7.68,2.12-15.53.23-23.01,12.93-5.76,22.9-16.17,26.73-29.75,7.45-26.43-11.19-54.81-41.65-63.41-1.98-.56-3.96-1.02-5.94-1.38,2.11-23.93-15.72-47.67-43.12-55.4-22.81-6.43-45.77.06-59,14.82-7.62-9.86-18.9-17.7-32.57-21.55-30.46-8.59-61.19,5.86-68.65,32.29-.21.73-.39,1.47-.56,2.21-24.1-.22-45.45,13.34-51.49,34.77Z"/>
  </g>
</svg>