<?xml version="1.0" encoding="UTF-8"?>
<svg id="Layer_1" data-name="Layer 1" xmlns="http://www.w3.org/2000/svg" viewBox="0 0 55.32 53.06">
  <defs>
    <style>
      .cls-1 {
        fill: #33411d;
      }
    </style>
  </defs>
  <path class="cls-1" d="M55.12,19.85c-.47-1.44-1.72-2.49-3.23-2.7l-14.3-2.02-6.44-12.92c-.67-1.35-2.05-2.21-3.56-2.21h-.02c-1.52,0-2.9.87-3.56,2.23l-6.34,12.97-14.28,2.13c-1.5.22-2.74,1.28-3.2,2.72-.46,1.44-.07,3.02,1.02,4.08l10.38,10.04-2.38,14.24c-.25,1.5.37,3,1.6,3.89.69.5,1.51.75,2.33.75.64,0,1.28-.15,1.87-.46l12.75-6.77,12.81,6.67c.58.3,1.21.45,1.84.45.83,0,1.66-.26,2.35-.77,1.22-.9,1.83-2.41,1.57-3.9l-2.5-14.22,10.3-10.12c1.08-1.06,1.47-2.65.99-4.09Z"/>
</svg>