<?xml version="1.0" encoding="UTF-8"?>
<svg id="Layer_1" data-name="Layer 1" xmlns="http://www.w3.org/2000/svg" viewBox="0 0 238.7 227.68">
  <defs>
    <style>
      .cls-1 {
        fill: #b7c999;
        stroke-linejoin: round;
        stroke-width: 9px;
      }

      .cls-1, .cls-2, .cls-3, .cls-4, .cls-5 {
        stroke: #33411d;
      }

      .cls-2, .cls-3, .cls-4, .cls-5 {
        stroke-miterlimit: 10;
      }

      .cls-2, .cls-4 {
        stroke-width: 2px;
      }

      .cls-2, .cls-5 {
        fill: none;
      }

      .cls-6 {
        fill: #dcf0ee;
      }

      .cls-3, .cls-4 {
        fill: #33411d;
      }

      .cls-7 {
        fill: #facfdb;
      }

      .cls-8 {
        fill: #f9f9e3;
      }

      .cls-5 {
        stroke-width: 5px;
      }
    </style>
  </defs>
  <path class="cls-1" d="M65.14,14.6s30.91,29.49,46.89,27.98c32.6-3.08,33.16-38.08,33.16-38.08,0,0,71.12,15.7,89.01,21.83,0,0-25.57,46.39-17.05,59.93h-28.33l45.38,116.22s-131.87,33.58-168.25,15.19l-15.36-124.72-21.83,8.79S15.81,52.89,4.5,44.94l60.64-30.34Z"/>
  <path class="cls-6" d="M136.29,100.42c1.42-14.45-.57-19.62-15.65-17.21s-1.58,18.99-1.58,18.99c0,0,5-2.12,8.33-2.56,5.64-.74,8.91.78,8.91.78Z"/>
  <path class="cls-6" d="M118.35,104.1c-7.88-12.46-11.95-14.33-22.43-3.66-10.48,10.67,10.57,16.2,10.57,16.2,0,0,2.65-4.6,5.02-6.87,4.02-3.86,6.83-5.67,6.83-5.67Z"/>
  <path class="cls-6" d="M151.56,108.3c11.27-9.56,13.69-11.91.85-20.06-12.84-8.15-16.34,11.99-16.34,11.99,0,0,5.86,1.35,8.62,3.21,4.69,3.17,6.87,4.86,6.87,4.86Z"/>
  <path class="cls-6" d="M157.2,124.2c15-1.37,19.02-4.14,13.48-17.94-5.55-13.8-19.65,2.06-19.65,2.06,0,0,3.18,4.33,4.31,7.39,1.91,5.19,1.87,8.49,1.87,8.49Z"/>
  <path class="cls-6" d="M137.62,148.86c5.12,13.71,9.2,17.59,21.72,9.2,12.52-8.39-6.98-17.9-6.98-17.9,0,0-3.56,3.98-6.37,5.74-4.75,2.99-8.37,2.96-8.37,2.96Z"/>
  <path class="cls-6" d="M137.59,148.87c2.27,14.39.59,19.62-14.62,17.78-15.21-1.84-2.7-18.91-2.7-18.91,0,0,5.12,1.93,8.47,2.24,5.68.53,8.85-1.11,8.85-1.11Z"/>
  <path class="cls-6" d="M107.16,115.79c-14.58-3.05-21.61-1.45-18.6,13.66,2.52,12.62,19.17,3.73,19.17,3.73,0,0-1.79-5.22-2-8.59-.35-5.71,1.43-8.8,1.43-8.8Z"/>
  <path class="cls-6" d="M108.03,135.51c-13.24,6.45-17.63,11.97-5.44,21.97,10.19,8.36,17.3-10.09,17.3-10.09,0,0-4.53-2.1-6.89-4.61-4-4.26-4.97-7.26-4.97-7.26Z"/>
  <path class="cls-6" d="M152.02,140.5c11.35,9.38,17.63,10.64,22.47-3.96,4.04-12.19-16.43-11.63-16.43-11.63,0,0-.25,4.82-1.74,7.86-2.53,5.15-4.31,7.73-4.31,7.73Z"/>
  <path class="cls-7" d="M157.28,118.85c3.59,13.66-4.96,27.45-19.11,30.79s-28.53-5.03-32.13-18.69c-3.59-13.66,4.96-27.45,19.11-30.79,14.15-3.34,28.53,5.03,32.13,18.69Z"/>
  <path class="cls-8" d="M150.42,125.5s2.61-5.6-3.56-6.35c-6.17-.75-6.41,5.9-5.35,6.64s2.67,2.39,3.37,2.17,3.36-2.36,5.54-2.46Z"/>
  <path class="cls-8" d="M116.36,133.66s-5.08-3.79,0-7.19c5.08-3.41,8.58,2.36,8.02,3.48s-1.18,3.3-1.9,3.42-4.14-.59-6.11.29Z"/>
  <ellipse class="cls-3" cx="133.69" cy="133.09" rx="3.09" ry="2.74" transform="translate(-16.91 19.48) rotate(-7.84)"/>
  <g>
    <ellipse class="cls-4" cx="120.13" cy="129.61" rx="2.34" ry="2.07" transform="translate(-6.64 6.49) rotate(-3.01)"/>
    <path class="cls-2" d="M115.24,127.18s-3.31-.57-3.47-1.75"/>
    <path class="cls-2" d="M118.44,125.67s-1.93-1.45-1.56-2.93"/>
    <path class="cls-2" d="M120.94,125.93s2.13-1.24,2.21-2.36"/>
    <path class="cls-2" d="M116.3,133.39c.63-.21,1.31-.36,2.04-.44,1.3-.15,2.52-.06,3.56.21,1.39-.89,2.22-2.35,2.01-3.9-.31-2.29-2.75-3.9-5.46-3.59s-4.66,2.43-4.36,4.72c.17,1.29,1.02,2.36,2.21,3Z"/>
  </g>
  <g>
    <path class="cls-4" d="M146.7,123.25c.45,1.1-.1,2.34-1.24,2.76s-2.43-.12-2.88-1.22c-.45-1.1.1-2.34,1.24-2.76s2.43.12,2.88,1.22Z"/>
    <path class="cls-2" d="M141.63,121.67s-2.72.78-3.28-.28"/>
    <path class="cls-2" d="M144.33,119.44s-1.76-.78-2.44-2.4"/>
    <path class="cls-2" d="M147.9,119.31s2.02-1.65,1.1-2.71"/>
    <path class="cls-2" d="M150.11,125.24c-.65.1-1.33.28-2.01.54-1.21.46-2.25,1.09-3.01,1.8-1.67-.15-3.14-1.06-3.74-2.51-.89-2.15.45-4.67,2.99-5.63,2.54-.95,5.32.02,6.21,2.17.5,1.21.3,2.54-.43,3.63Z"/>
  </g>
  <path class="cls-2" d="M123.12,138.09s6.65,7.97,15.68,2.3"/>
  <path class="cls-2" d="M142.61,113.49s4.74-1.58,7.62.4"/>
  <path class="cls-2" d="M116.95,119.38s-4.97.72-6.53,3.75"/>
  <path class="cls-5" d="M156.73,118.96c3.53,13.42-4.89,26.96-18.81,30.25s-28.06-4.93-31.59-18.35c-3.53-13.42,4.89-26.96,18.81-30.25,13.92-3.29,28.06,4.93,31.59,18.35Z"/>
  <path class="cls-5" d="M119.06,102.05s-13.27-16.27,1.56-18.65c14.83-2.38,16.79,2.7,15.39,16.9"/>
  <path class="cls-5" d="M151.19,108.72s13.39-15.97,19.25-2.58c5.86,13.4,1.17,16.33-13.53,18.09"/>
  <path class="cls-5" d="M152.37,140.44s19.16,9.36,6.83,17.58c-12.33,8.23-16.33,4.42-21.34-9.06"/>
  <path class="cls-5" d="M118.98,147.11s-5.6,19.84-16.51,9.77c-10.92-10.07-7.85-14.57,4.84-21.85"/>
  <path class="cls-5" d="M107.37,116.21s-21.14-3.45-11.96-14.86c9.18-11.42,14.17-8.92,23.12,2.53"/>
  <path class="cls-5" d="M150.62,108.08s18.27-10.39,5.8-17.76c-12.47-7.37-16.19-3.36-20.42,10.23"/>
  <path class="cls-5" d="M153.12,139.12s13.73,15.78,19.19,2.82c5.47-12.96.73-15.89-13.92-17.85"/>
  <path class="cls-5" d="M121.05,147.16s-12.73,16.33,1.68,18.6c14.4,2.27,16.25-2.81,14.78-16.97"/>
  <path class="cls-5" d="M106.43,118s-19.1-9.22-18.7,4.8c.4,14.03,5.94,14.9,20.13,11.05"/>
</svg>